<?xml version="1.0" encoding="UTF-8"?>
<svg id="Laag_1" xmlns="http://www.w3.org/2000/svg" version="1.1" viewBox="0 0 300 300">
  <!-- Generator: Adobe Illustrator 30.3.0, SVG Export Plug-In . SVG Version: 2.1.3 Build 182)  -->
  <defs>
    <style>
      .st0 {
        fill: #262626;
      }

      .st1 {
        fill: #424242;
      }

      .st2 {
        fill: #fefefe;
      }

      .st3 {
        fill: #747474;
      }

      .st4 {
        fill: #737373;
      }

      .st5 {
        fill: #535353;
      }
    </style>
  </defs>
  <rect class="st2" width="300" height="300"/>
  <g>
    <path class="st0" d="M198.24,216.589c38.724,5.463,38.5,21.347,37.721,55.416H59.085c-.809-33.013,1.032-50.525,38.321-55.372-43.536-51.748-18.573-112.315,27.526-152.051-20.766-39.718,45.611-57.868,46.961-11.754-25.071,25.29-29.664,64.881-31.423,99.064l15.604.087c-.117-27.773,4.376-56.803,19.845-80.525,43.657,34.223,62.795,100.561,22.322,145.135Z"/>
    <g>
      <g>
        <path class="st5" d="M156.37,35.796c14.062,28.721-52.028,70.378-23.075,122.464l29.623.714c.162-25.834,2.388-54.062,14.612-75.997,46.332,35.06,30.178,117.397-25.69,131.913.002,0-44.483.879-44.483.879-26.215-20.477-25.689-52.034-14.495-80.42,8.58-26.128,22.17-49.441,43.235-67.4-2.457-5.77-7.569-8.263-7.934-15.615.839-1.395,1.126-1.698.863-.909,1.369-8.323,6.639-15.18,14.722-17.914-.683.344-.567.032.349-.937,4.495-.693,8.488.728,12.273,3.222Z"/>
        <path class="st1" d="M151.841,214.889c46.044-21.122,60.847-62.24,44.342-110.291,24.891,32.448,23.047,83.638-7.89,111.842-12.774-1.475-24.509-1.788-36.452-1.551Z"/>
        <path class="st3" d="M85.243,179.101c-12.435-46.597,14.952-84.76,49.897-113.129,1.461-.257,3.721.609,4.953,1.718-34.917,26.96-49.357,70.207-54.85,111.411Z"/>
        <path class="st1" d="M133.295,158.26c-5.952-.143-10.026-22.231-9.052-35.273,1.559-29.663,36.377-58.612,32.127-87.191,4.235,2.792,7.559,7.281,8.151,13.256-24.416,28.391-31.323,72.547-31.226,109.208Z"/>
        <path class="st4" d="M144.097,32.573c1.051.294,1.057,1.315.264,1.699-7.551,3.658-12.23,10.544-14.738,18.587-.419.017-1.02-.379-1.461-.526-.599-10.024,6.19-18.258,15.934-19.761Z"/>
      </g>
      <g>
        <path class="st5" d="M226.373,239.191c3.297,7.96,2.784,16.847,2.521,25.887l-162.434-.013c.944-10.165-2.253-24.079,6.731-29.961,23.623-6.304,134.857-10.421,153.182,4.088Z"/>
        <path class="st3" d="M226.373,239.191c-14.157-5.932-32.518-5.748-47.617-6.872-29.437.191-80.59-1.758-108.785,5.192,14.258-24.367,103.03-14.511,130.509-13.104,10.328,1.371,21.789,4.399,25.893,14.785Z"/>
      </g>
    </g>
  </g>
</svg>