<?xml version="1.0" encoding="UTF-8"?>
<svg id="Laag_1" xmlns="http://www.w3.org/2000/svg" version="1.1" viewBox="0 0 300 300">
  <!-- Generator: Adobe Illustrator 30.3.0, SVG Export Plug-In . SVG Version: 2.1.3 Build 182)  -->
  <defs>
    <style>
      .st0 {
        fill: #262626;
      }

      .st1 {
        fill: #828282;
      }

      .st2 {
        fill: #757575;
      }

      .st3 {
        fill: #868686;
      }

      .st4 {
        fill: #fefefe;
      }

      .st5 {
        fill: #414141;
      }

      .st6 {
        fill: #535353;
      }
    </style>
  </defs>
  <g>
    <path class="st0" d="M238.926,271.987l-176.864.022c-.015-19.357-2.664-45.497,21.427-51.594-8.293-11.324-18.539-20.207-27.364-30.538C.086,134.352,56.501,60.324,127.7,90.87l2.149-9.673-17.862-.231.003-37.94,19.997-.039.036-19.997h36.934s.011,19.996.011,19.996l20.012.037.004,37.953-17.979.07c1.501,3.285,1.901,6.227,2.172,10.211,68.646-31.121,127.525,40.705,73.965,96.811-5.62,5.943-25.97,25.251-29.12,32.579,23.141,5.309,21.051,32.979,20.905,51.341Z"/>
    <path class="st6" d="M229.109,239.245c3.448,6.386,2.441,18.761,2.623,25.827H69.512c-.64-19.01-1.923-32.08,21.143-32.584,30.566-1.689,115.443-8.762,138.455,6.757Z"/>
    <path class="st2" d="M229.109,239.245c-39.102-11.31-117.338-10.5-156.996-.452,12.508-25.482,94.832-15.681,121.574-15.429,14.565,1.188,30.487,3.469,35.422,15.88Z"/>
    <g>
      <path class="st6" d="M162.113,50.063l1.154,1.601c6.066-.083,12.123-.029,18.174.163l.656,1.33.028,20.289-19.923.002,6.104,27.776c57.893-29.979,116.108,12.613,73.118,71.087,0-.002-43.062,43.037-43.062,43.037-29.434,1.011-75.727-2.622-107.355,3.554-11.532-19.332-31.518-32.45-42.722-49.889-21.966-55.124,35.428-95.504,84.453-68.43l6.088-27.141c-6.854-.054-12.779.466-18.666-.275.18-6.818.553-13.754,1.12-20.807,6.229-.456,12.518-.764,18.867-.925.363-6.323.707-12.649,1.031-18.976l.965-.657c6.877.234,13.516.014,19.917-.658.297,6.304.252,12.6.053,18.919Z"/>
      <path class="st5" d="M191.862,216.486c1.724,3.325,44.177-42.512,46.103-43.469,19.292-19.247,18.291-39.207,10.564-64.124,35.427,48.527-12.731,73.333-38.179,109.752l-18.487-2.159Z"/>
      <path class="st2" d="M100.999,92.069c-43.3,3.297-62.884,35.819-52.714,76.945-23.003-37.586,8.607-85.243,52.714-76.945Z"/>
      <path class="st3" d="M162.06,31.144c-1.089.186-2.375,1.751-3.309,2.317l-16.302-.048-.251,20.023h-19.714s-.313,15.546-.313,15.546c-.033,1.617-1.57,3.003-2.011,4.186-2.539.178-.669-21.702-1.191-22.995l20.013-.032.004-19.988c.622.517,24.059-1.281,23.074.99Z"/>
      <path class="st1" d="M182.096,53.157l-22.434.123c.498-1.79,1.663-2.341,2.45-3.217l19.698.085c.515,1.237.284,2.191.286,3.009Z"/>
      <g>
        <path class="st0" d="M188.705,186.311c-6.827-.281-11.621.029-18.218-1.241l.651-46.261c11.282-13.492,37.445-16.262,44.841-1.983,9.6,18.533-14.532,31.784-27.274,49.485Z"/>
        <path class="st4" d="M196.781,166.154l-11.705,12.892-7.087-.191-.054-37.036c9.565-7.416,23.405-11.038,30.706-2.823,7.608,8.561-3.29,17.718-11.861,27.158Z"/>
      </g>
      <g>
        <path class="st0" d="M131.028,185.202l-18.357,1.233c-7.4-11.123-36.57-31.519-28.523-47.533,6.931-17.29,35.785-13.473,45.968-.042l.912,46.342Z"/>
        <path class="st4" d="M122.974,178.827c-8.268,2.281-11.304-5.355-17.239-11.516-8.891-9.23-20.067-18.536-13.765-27.763,5.7-8.347,21.369-5.765,31.095,2.268l-.09,37.011Z"/>
      </g>
    </g>
  </g>
</svg>