<?xml version="1.0" encoding="UTF-8"?>
<svg id="Laag_1" xmlns="http://www.w3.org/2000/svg" version="1.1" viewBox="0 0 300 300">
  <!-- Generator: Adobe Illustrator 30.3.0, SVG Export Plug-In . SVG Version: 2.1.3 Build 182)  -->
  <defs>
    <style>
      .st0 {
        fill: #262626;
      }

      .st1 {
        fill: #757575;
      }

      .st2 {
        fill: #424242;
      }

      .st3 {
        fill: #fefefe;
      }

      .st4 {
        fill: #535353;
      }
    </style>
  </defs>
  <g>
    <path class="st0" d="M133.505,167.071c9.458-7.3,15.801-15.665,13.032-26.181-10.933,11.882-24.278,22.22-41.314,21.514-11.458,6.124-9.751,20.997-25.453,18.657-19.985-2.093-46.492-16.903-31.068-39.395-.001.001,24.157-34.768,24.157-34.768,6.275-9.032,7.464-31.384,20.554-40.471,7.544-5.236,11.622-11.956,12.686-21.372,1.015-8.99,8.629-15.723,17.585-13.843l21.571,21.456c83.834,6.487,110.154,98.911,80.717,167.904,23.985,6.373,20.96,31.885,20.983,51.435H70.127c-.205-19.27-1.334-46.282,22.648-51.651,5.191-23.297,22.229-38.125,40.73-53.283Z"/>
    <path class="st4" d="M237.314,238.998c3.474,5.625,2.346,19.697,2.607,26.077l-161.978-.002c-.507-9.434-1.055-18.917,2.915-27.207,21.292-11.368,137.912-13.336,156.456,1.132Z"/>
    <path class="st2" d="M173.668,215.068c6.243-17.559,20.681-30.783,28.681-47.774,21.62-46.926-3.075-92.823-50.951-106.431,77.227,13.094,93.442,93.709,67.45,157.695-16.002-2.355-30.021-3.369-45.179-3.489Z"/>
    <path class="st1" d="M237.314,238.998c-40.162-11.234-83.502-7.218-124.852-5.759-9.953.692-19.034,1.855-28.486,4.713-1.15.348-2.328,1.328-3.119-.086,13.798-24.202,95.675-14.851,122.648-14.427,13.631,1.142,29.254,3.769,33.808,15.559Z"/>
    <g>
      <path class="st4" d="M151.397,60.863c56.015,11.802,76.547,67.726,47.665,116.543-8.489,11.338-15.987,23.233-22.494,35.686l-2.901,1.976c-24.727-.196-48.851-.082-73.015,3.547,8.304-35.697,54.298-42.983,55.313-78.677,3.29-8.863,4.404-17.718,3.341-26.567l-9.966,15.728-2.339-.189c-8.621,10.563-23.704,28.586-37.994,23.887-16.645-15.376-11.734,10.065-26.446,21.411-13.187-1.361-37.461-8.882-28.345-23.548,10.84-12.63,21.431-25.457,31.771-38.482l3.278-6.591c5.798-39.842,39.146-32.755,31.14-63.648l1.803-1.725,19.714,18.879c2.125,2.035,6.54,1.302,9.474,1.77Z"/>
      <path class="st1" d="M122.209,40.215c1.323,10.856,3.04,22.237-6.162,27.825-24.497,14.244-18.291,32.009-31.941,50.087-.002-.001-32.306,38.53-32.306,38.53-2.994-8.01,21.276-34.933,24.451-41.409,10.847-15.42,8.197-33.523,24.918-46.069,6.681-5.013,10.585-12.329,11.405-20.544.879-7.335,5.857-13.653,9.635-8.418Z"/>
      <path class="st2" d="M155.421,147.988c-.616-6.983-2.957-14.424-8.419-19.077,5.322-7.134,11.529-18.874,11.574-18.893,8.417,3.476-.579,30.258-3.156,37.97Z"/>
      <path class="st2" d="M114.47,153.92c-16.543.143-18.989,5.551-27.381,18.116-1.135,1.618-2.358,2.382-4.527,2.174.557-1.849,1.671-3.259,2.815-4.803,8.112-9.563,5.9-26.362,17.274-23.053,0,0,11.82,7.567,11.82,7.567Z"/>
      <path class="st0" d="M129.975,93.917c-3.731,9.42-15.681,2.261-22.914,8.168,1.068-8.902,8.01-22.58,18.35-17.918,3.381,1.795,6.255,5.479,4.563,9.751Z"/>
    </g>
  </g>
</svg>