<?xml version="1.0" encoding="UTF-8"?>
<svg id="Laag_1" xmlns="http://www.w3.org/2000/svg" version="1.1" viewBox="0 0 300 300">
  <!-- Generator: Adobe Illustrator 30.3.0, SVG Export Plug-In . SVG Version: 2.1.3 Build 182)  -->
  <defs>
    <style>
      .st0 {
        fill: #262626;
      }

      .st1 {
        fill: #757575;
      }

      .st2 {
        fill: #424242;
      }

      .st3 {
        fill: #fefefe;
      }

      .st4 {
        fill: #747474;
      }

      .st5 {
        fill: #535353;
      }
    </style>
  </defs>
  <g>
    <path class="st0" d="M228.897,271.991l-158.682.022c-3.353-63.303,46.233-47.271,54.016-98.897l-16.332-.014c-5.067-6.22-7.893-13.672-6.751-22.14l18.863-12.288c-38.25-39.077,20.231-97.76,59.384-59.645,16.607,16.376,16.805,42.69.504,59.592l18.644,12.825c2.406,7.126-3.195,15.209-5.905,21.466l-16.995.197c7.088,51.358,58.132,35.813,53.252,98.882Z"/>
    <g>
      <path class="st5" d="M205.896,227.252c7.68,1.052,17.868,24.126,16.286,37.829l-144.757-.014c-.814-2.461-.626-4.732.506-6.041l.769.302c1.764-17.718,23.129-28.449,35.697-38.083,9.526-12.929,13.801-31.207,17.301-47.169l1.881-.959c13.593,13.858,27.768,27.214,42.525,40.065,8.949,6.714,19.912,9.262,29.791,14.068Z"/>
      <path class="st5" d="M174.148,84.748c13.612,19.098,4.217,42.941-16.537,52.11l8.803.09c1.269,1.951,2.557,4.082,4.72,4.934,7.72,6.732,8.266,23.117-4.193,24.244,1.312,4.411-32.09,2.069-33.366,1.92l-1.452-2.003-19.923-.266c-2.626-1.807-5.148-8.404-3.316-10.783,4.696-1.651,9.529-2.47,14.497-2.457,1.205-5.121,3.98-8.774,7.643-12.382,1.168-2.687-10.622-6.495-14.835-22.158-.983-28.525,34.569-60.132,57.96-33.25Z"/>
      <path class="st2" d="M166.941,166.127c1.161,27.629,17.627,45.485,38.955,61.125-29.021-2.001-54.302-34.958-74.198-53.175l.425-8.034,34.818.083Z"/>
      <path class="st1" d="M77.93,259.026c.284-35.424,39.022-38.671,49.337-69.136.622,44.869-40.42,36.735-48.708,73.218-1.063-1.716-.587-3.065-.629-4.082Z"/>
      <path class="st2" d="M167.832,138.963l-19.404-.199c25.826-9.132,36.503-28.094,25.72-54.016,16.881,14.819,12.538,42.993-6.316,54.215Z"/>
      <path class="st2" d="M169.137,165.904c8.313-9.793,5.688-13.243,1.997-24.021l20.037,13.061c1.048,2.994-.932,9.165-3.384,10.624l-18.65.336Z"/>
      <path class="st4" d="M151.332,74.304c-20.208,5.228-30.075,25.087-35.144,43.694-6.419-21.513,12.202-45.463,35.144-43.694Z"/>
      <path class="st4" d="M108.883,154.994l22.14-14.839c-2.037,4.686-4.946,9.074-6.198,14.8l-15.942.038Z"/>
    </g>
  </g>
</svg>