<?xml version="1.0" encoding="UTF-8"?>
<svg id="Laag_1" xmlns="http://www.w3.org/2000/svg" version="1.1" viewBox="0 0 300 300">
  <!-- Generator: Adobe Illustrator 30.3.0, SVG Export Plug-In . SVG Version: 2.1.3 Build 182)  -->
  <defs>
    <style>
      .st0 {
        fill: #262626;
      }

      .st1 {
        fill: #1e1e1e;
      }

      .st2 {
        fill: #757575;
      }

      .st3 {
        fill: #424242;
      }

      .st4 {
        fill: #fefefe;
      }

      .st5 {
        fill: #747474;
      }

      .st6 {
        fill: #535353;
      }
    </style>
  </defs>
  <rect class="st4" width="300" height="300"/>
  <g>
    <path class="st0" d="M249.591,132.516l-36.156,86.679c28.291,5.405,25.724,30.607,25.517,52.81l-176.731-.005c-.708-21.538-.471-48.582,26.27-52.724l-36.092-86.679c-26.33-6.4-26.837-45.844-.373-52.043,20.92-6.184,41.869,17.392,30.749,37.032,5.791,5.206,12.089,13.244,17.728,18.494,3.527-17.227.289-34.187,3.891-51.389-28.847-13.391-14.858-59.139,17.614-52.496,21.542,3.325,30.05,31.419,14.706,46.956l14.013,41.335,14.801-41.297c-19.467-18.008-2.62-50.604,22.653-47.362,26.456.784,34.6,41.04,10.354,51.867-1.448,3.746.148,7.453.281,11.377.271,10.091,1.153,31.002,1.663,41.167,6.77-4.831,12.267-13.385,18.452-18.83-10.002-17.653,6.527-39.329,25.595-37.675,29.28.981,34.956,45.169,5.066,52.784Z"/>
    <g>
      <g>
        <path class="st6" d="M125.97,40.925c.969-1.358,2.807-.276,2.173,1.326,10.22,9.866-6.393,20.796-5.784,31.147,9.892,22.568,19.651,46.037,28.535,69.046l23.01-65.928c-20.603-11.406,2.128-45.924,21.136-35.547,1.276,0,1.944.391,2.003,1.176,11.107,12.763-10.192,23.227-10.276,35.862,3.475,25.034,5.692,50.906,7.509,76.169l33.638-35.772c-12.586-14.944,14.934-43.473,28.329-25.546,8.33,13.162-1.972,23.248-13.721,28.197-4.659,5.899-8.75,12.599-12.276,20.099-18.747,28.813-39.416,67.722-76.272,73.794-19.151.091-38.316.477-58.248,3.275l-38.144-91.865c-32.942-3.931-10.503-50.513,11.519-36.345,5.944,5.955-1.128,17.721-.099,25.309,13.34,13.215,24.272,25.768,38.46,38.623l3.625-74.802c-27.932-5.468-7.526-49.374,14.88-38.22Z"/>
        <path class="st3" d="M261.166,97.647c7.623,12.577-2.108,27.739-15.489,30.556-12.553,29.125-24.93,58.329-37.131,87.614-1.556-.092-2.322.565-3.346,1.901-17.207-2.232-34.19-2.853-51.224-2.77,41.474-13.747,64.087-56.52,84.376-92.577,9.736-9.435,22.715-8.237,17.893-29.512,1.142,1.427,3.339,3.238,4.921,4.788Z"/>
        <path class="st3" d="M193.013,130.002l.023,9.019-8.097-57.911c-1.955-14.88,12.802-20.147,13.512-31.23l-1.409-7.735c3.188-.309,6.107,3.573,7.698,6.296,7.482,12.808,1.068,26.696-11.911,32.228.266,16.476.327,32.921.183,49.333Z"/>
        <path class="st3" d="M143.015,119.744l2.218,8.184c-2.35.024-22.578-49.769-24.167-52.053-4.939-11.121,13.748-19.398,7.076-33.623,3.064-.958,7.136,4.91,8.513,7.833,4.378,9.291.283,20.239-6.319,27.371,4.52,14.133,8.746,28.229,12.678,42.288Z"/>
        <path class="st1" d="M207.048,215.945l37.248-89.633c14.171-1.436,21.726-16.227,16.869-28.665,10.673,11.339-1.811,29.524-14.832,32.528l-36.484,86.447c-1.125,2.109-3.199,1.6-2.802-.677Z"/>
        <path class="st3" d="M92.935,140.204c-39.456-37.102-22.579-13.36-23.832-50.189,9.946,5.775,12.875,19.527,4.769,28.165,2.115,3.176,19.099,18.36,19.063,22.024Z"/>
        <path class="st1" d="M193.013,130.002c-.078-9.657-1.749-40.913-2.273-51.045,18.873-3.8,20.48-30.776,4.3-37.988,7.15-1.359,14.145,9.158,14.493,19.684.454,13.731-15.437,20.329-15.445,23.447l-.113,44.83c-.002.721-.569,1.121-.962,1.072Z"/>
        <path class="st1" d="M143.015,119.744l-15.058-43.036c13.745-8.39,12.244-29.037-1.987-35.783-.882-4.689,7.254,1.139,10.982,7.097,4.959,7.927,1.102,21.145-4.857,30.39l11.483,38.956c.213.874,1.096,2.662-.563,2.376Z"/>
        <path class="st5" d="M119.257,38.936c-13.485,3.409-19.126,16.759-21.852,29.237-6.788-14.017,5.822-32.092,21.852-29.237Z"/>
        <path class="st5" d="M187.242,38.86c-12.338,4.598-18.958,15.108-21.41,28.104-6.394-13.572,6.777-30.325,21.41-28.104Z"/>
        <path class="st5" d="M245.216,86.856c-11.013,4.046-17.956,14.707-20.327,26.126-6.767-12.614,7.13-28.369,20.327-26.126Z"/>
        <path class="st5" d="M61.238,86.875c-11.614,3.525-16.905,15.356-20.848,26.017-5.237-13.082,7.019-28.171,20.848-26.017Z"/>
      </g>
      <g>
        <path class="st6" d="M229.098,238.128c3.932,7.477,2.757,18.658,2.82,26.938l-162.003.01c.29-7.797-1.267-20.428,2.999-27.365,19.524-10.492,138.602-12.109,156.184.417Z"/>
        <path class="st2" d="M229.098,238.128c-41.138-9.251-84.355-6.961-126.266-4.704-9.386.723-17.961,1.741-26.849,4.549-1.169.369-2.341,1.244-3.068-.262,15.429-23.649,86.849-14.575,114.992-14.91,15.631,1.025,35.218,2.703,41.191,15.327Z"/>
      </g>
    </g>
  </g>
</svg>