<?xml version="1.0" encoding="UTF-8"?>
<svg id="Laag_1" xmlns="http://www.w3.org/2000/svg" version="1.1" viewBox="0 0 300 300">
  <!-- Generator: Adobe Illustrator 30.3.0, SVG Export Plug-In . SVG Version: 2.1.3 Build 182)  -->
  <defs>
    <style>
      .st0 {
        fill: #262626;
      }

      .st1 {
        fill: #757575;
      }

      .st2 {
        fill: #424242;
      }

      .st3 {
        fill: #868686;
      }

      .st4 {
        fill: #858585;
      }

      .st5 {
        fill: #fefefe;
      }

      .st6 {
        fill: #838383;
      }

      .st7 {
        fill: #535353;
      }
    </style>
  </defs>
  <g>
    <path class="st0" d="M237.968,271.983l-175.95.026c.194-20.905-3.04-47.08,23.841-52.186l11.174-92.566c-18.724-6.189-18.806-22.852-21.368-39.197,1.199-4.217-.258-8.004-.565-12.017-.32-4.18.332-7.916-1.546-12.474,11.188-7.152,23.97-10.543,37.13-9.473l5.76,26.38c3.062.864,6.137.905,8.41.094l3.34-29.298c13.024-3.352,30.586-3.351,43.61,0l3.34,29.297c2.27.812,5.349.772,8.412-.095l5.748-26.36c13.002-1.143,25.308,2.254,36.865,9.126-1.59,4.327-.945,8.347-1.269,12.796-.292,4.011-1.782,7.81-.562,12.023-2.564,16.321-2.663,33.045-21.37,39.196l11.171,92.569c26.887,5.1,23.646,31.3,23.828,52.159Z"/>
    <g>
      <g>
        <path class="st7" d="M191.813,75.655c3.086-6.854,10.098-16.8,18.363-11.709,5.088.001-6.566,39.593-7.752,41.834-3.125,6.447-10.993,12.906-17.966,14.199-17.479-1.769-34.459-3.109-52.027-1.474-16.474.071-35.459,10.104-45.289-8.604-1.677-12.247-2.754-35.511,5.108-45.697,1.696-2.197,1.704.491,1.592.386-.546-.516-.77-1.163-.757-1.92l11.84-1.397,6.134,26.735,19.802.044,1.889-16.352c3.435-6.436,8.42-15.228,17.001-15.466.164-.005-2.805,1.301-2.461-.599,5.863-.504,11.987.933,18.188,1.643l3.597,30.774,19.855-.041,2.884-12.356Z"/>
        <path class="st2" d="M184.459,119.979l11.619-8.897c9.232-8.378,10.315-35.656,14.099-47.136,2.522.804,5.391,1.012,7.955,3.184-3.464,24.18,4.088,60.639-33.673,52.849Z"/>
        <path class="st3" d="M93.085,62.67c.226.218.97-.175,2.096.537-9.152,12.571-6.334,31.808-8.04,46.695-3.834-6.749-4.276-34.947-5.328-42.714,3.692-2.386,7.296-4.048,11.272-4.518Z"/>
        <path class="st4" d="M147.29,55.635c.38.324,1.437-.134,2.814.772-10.747,3.357-17.406,21.421-17.353,15.293,0,0,1.705-14.348,1.705-14.348,4.284-.977,8.402-1.336,12.835-1.717Z"/>
        <path class="st6" d="M205.265,62.31c-2.855,2.93-10.546,10.128-13.451,13.345l3.35-14.354c3.629-.157,6.801.507,10.101,1.008Z"/>
      </g>
      <g>
        <path class="st7" d="M130.918,126.012c44.279-.508,61.422,53.496,57.145,90.144-31.133-1.726-62.27-1.97-94.709,2.046l10.708-89.828c9.456-1.104,18.144-2.791,26.855-2.362Z"/>
        <path class="st7" d="M228.319,238.47c3.572,8.058,3.07,17.34,2.748,26.602H68.92c.492-10.229-3.112-26.162,8.324-30.422,28.912-5.525,128.14-10.042,151.075,3.82Z"/>
        <path class="st2" d="M188.063,216.156c-1.624-37.377-12.671-86.009-57.145-90.144,20.62-3.502,43.979-.295,64.995,2.381l10.688,89.633-18.537-1.87Z"/>
        <path class="st1" d="M228.319,238.47c-41.144-9.854-84.716-7.153-126.673-5.146-10.555.764-20.194,2.177-29.715,4.635,13.521-24.402,94.911-14.889,121.75-14.559,13.746,1.13,29.453,3.372,34.638,15.07Z"/>
      </g>
    </g>
  </g>
</svg>