<?xml version="1.0" encoding="UTF-8"?>
<svg id="Laag_1" xmlns="http://www.w3.org/2000/svg" version="1.1" viewBox="0 0 300 300">
  <!-- Generator: Adobe Illustrator 30.3.0, SVG Export Plug-In . SVG Version: 2.1.3 Build 182)  -->
  <defs>
    <style>
      .st0 {
        fill: #d2d2d2;
      }

      .st1 {
        fill: #f6f6f6;
      }

      .st2 {
        fill: #e7e7e7;
      }

      .st3 {
        fill: #464646;
      }

      .st4 {
        fill: #f9f9f9;
      }

      .st5 {
        fill: #fefefe;
      }

      .st6 {
        fill: #f7f7f7;
      }
    </style>
  </defs>
  <g>
    <path class="st3" d="M220.429,162.093c-1.748,20.058-7.879,39.569-22.367,54.576,38.802,5.017,38.724,21.459,37.899,55.336H59.104c-.568-32.161.351-51.491,38.332-55.1-43.477-50.464-18.326-113.944,27.496-152.322-20.655-39.876,45.411-57.813,46.977-11.925-23.794,24.345-30.617,64.995-30.918,98.287l15.176.036c-.168-27.774,4.302-55.66,19.733-79.696,26.283,22.498,47.602,55.238,44.53,90.809Z"/>
    <g>
      <g>
        <path class="st1" d="M156.379,35.723c13.632,28.95-51.576,71.136-23.313,122.396l29.835.592c.214-25.499,2.345-53.614,14.633-75.78,50.183,37.536,26.498,132.531-38.539,132.054,0-.002-31.861,1.285-31.861,1.285-44.446-38.924-10.823-106.484,22.334-142.161,5.941-4.037,7.573-6.471,4.897-7.302,3.033-2.086-9.506-8.508-5.557-20.055,1.495-.146,2.779-1.763,3.852-4.85,5.309-7.582,15.53-12.815,23.718-6.179Z"/>
        <path class="st2" d="M138.996,214.984c.11-2.114,13.589-.547,14.866-.954,45.195-22.856,58.134-61.605,42.526-109.174,24.621,32.173,22.996,83.831-8.192,111.499-16.972-1.447-33.045-2.024-49.2-1.371Z"/>
        <path class="st5" d="M84.945,178.063c-12.244-43.216,16.211-85.784,49.423-111.255,1.488-1.158,4.484-.374,5.704.891-34.42,25.696-48.335,69.729-55.126,110.364Z"/>
        <path class="st0" d="M133.066,158.12c-9.042-5.219-10.08-30.472-8.101-40.184,4.157-27.979,34.617-52.633,31.414-82.212,4.321,2.83,7.708,7.208,8.03,13.392-24.625,29.839-30.768,71.453-31.343,109.004Z"/>
        <path class="st4" d="M144.912,32.575c-6.76,6.051-13.094,11.134-15.496,20.571-3.171-10.308,5.498-19.788,15.496-20.571Z"/>
      </g>
      <g>
        <path class="st6" d="M225.453,237.186c4.272,7.481,3.737,18.062,3.515,27.823l-162.471-.02c.117-9.98-.536-22.687,4.629-29.437,1.344,1.777,1.89,1.855,1.638.233,26.416-5.232,53.292-7.257,80.629-6.075,22.559.452,51.05-1.094,72.06,7.477Z"/>
        <path class="st5" d="M225.453,237.186c-1.014.957-2.447.763-3.884.309-11.268-3.56-22.699-4.539-34.388-4.869-37.703-.538-79.585-3.756-116.128,5.548,5.109-24.678,105.933-15.288,128.449-13.873,10.665,1.085,21.065,4.329,25.95,12.885Z"/>
      </g>
    </g>
  </g>
</svg>