<?xml version="1.0" encoding="UTF-8"?>
<svg id="Laag_1" xmlns="http://www.w3.org/2000/svg" version="1.1" viewBox="0 0 300 300">
  <!-- Generator: Adobe Illustrator 30.3.0, SVG Export Plug-In . SVG Version: 2.1.3 Build 182)  -->
  <defs>
    <style>
      .st0 {
        fill: #d2d2d2;
      }

      .st1 {
        fill: #464646;
      }

      .st2 {
        fill: #f9f9f9;
      }

      .st3 {
        fill: #272727;
      }

      .st4 {
        fill: #fefefe;
      }

      .st5 {
        fill: #f7f7f7;
      }

      .st6 {
        fill: #fdfdfd;
      }
    </style>
  </defs>
  <g>
    <path class="st1" d="M238.583,246.995l.36,25.009-176.87.002c.08-18.54-2.657-46.036,21.301-51.273-6.505-11.854-24.813-27.898-33.891-38.09C3.414,124.951,63.306,62.636,127.733,90.649c.469-2.82,1.232-5.985,2.47-9.598l-18.218-.077.005-37.95,19.997-.037.036-19.997h36.956s.036,19.997.036,19.997l19.997.037.004,37.951-17.983.063c1.46,3.356,1.862,6.163,2.16,10.263,71.622-31.78,128.472,44.138,70.929,99.717-5.859,5.786-22.287,22.725-26.63,29.422,12.579,3.261,19.838,13.417,21.092,26.556Z"/>
    <path class="st5" d="M228.146,238.056c4.558,6.16,3.582,17.558,3.66,26.948H69.389c.47-10.867-2.411-25.38,7.795-30.394,31.793-5.848,123.799-10.268,150.961,3.446Z"/>
    <path class="st4" d="M207.196,225.01c7.959,1.006,19.337,5.944,20.95,13.046-21.191-5.244-44.608-6.253-67.169-6.28-28.537-.124-60.858-.445-87.933,5.754,10.26-23.901,111.718-20.333,134.151-12.52Z"/>
    <path class="st3" d="M190.787,216.401c6.417.498,12.899.961,19.182,2.697l-2.773,5.912c-37.259-4.71-75.25-4.519-112.758-.164l-3.341-5.772c32.587-5.877,67.033-4.61,99.69-2.673Z"/>
    <g>
      <path class="st5" d="M182.075,51.16c-1.011.964-1.02,1.914-.028,2.849l.095,19.324-19.971.152,6.319,27.6c57.641-30.376,115.367,14.001,73.301,70.755-4.405,2.432-44.38,50.037-51.003,44.563-32.318,1.41-65.023-.886-96.671,4.013l-3.02-1.341c-12.194-21.866-38.404-36.321-43.97-54.271-18.564-53.675,38.515-90.564,85.567-64.122l6.187-27.359c-6.637.08-12.701.352-18.739-.181.074-6.682.353-13.599.837-20.75,6.119-.598,12.389-.833,18.812-.704.754-6.083.974-12.27.661-18.562-.461-.799-2.846-2.958-.424-3.113,0,0,22.121.046,22.121.046l.059,19.926c.503.525,21.539-1.229,19.868,1.177Z"/>
      <path class="st0" d="M209.968,219.099c-5.004,1.179-15.147,1.647-19.182-2.697,2.718,4.424,46.589-44.273,48.597-44.961,18.538-18.531,16.462-41.036,7.843-64.387,37.323,49.151-9.335,73.341-37.258,112.045Z"/>
      <path class="st6" d="M97.167,91.625c-35.908,5.039-60.616,36.605-49.059,72.656.451.834-.109,1.74-1.386,1.863-19.518-34.913,10.152-80.776,50.445-74.518Z"/>
      <path class="st6" d="M120.141,73.141c-2.703.442-.622-21.779-1.183-23.011l19.958-.07.077-18.925,22.313-.145c-2.069,4.766-15.35,1.94-19.21,2.614l-.309,20.121-19.553-.363c-.441,2.769.779,18.063-2.093,19.78Z"/>
      <path class="st2" d="M182.075,51.16l-.028,2.849-22.295-.458c.604-2.541,2.402-2.718,4.168-2.689l18.155.298Z"/>
      <g>
        <path class="st1" d="M188.616,186.297l-18.183-1.099.675-46.297c9.584-13.161,38.157-17.43,45.546-.747,9.181,16.27-20.537,36.897-28.038,48.142Z"/>
        <path class="st4" d="M210.796,147.782c-2.204,8.659-17.786,21.244-25.117,30.776-2.001,1.124-5.297.47-7.647.288l-.11-37.018c9.088-8.979,34.932-12.313,32.873,5.954Z"/>
      </g>
      <g>
        <path class="st1" d="M130.935,185.234l-18.237,1.127c-7.517-11.141-36.582-31.448-28.526-47.425,6.858-17.401,35.865-13.592,45.877-.092l.886,46.389Z"/>
        <path class="st4" d="M116.15,179.272c-7.161-10.547-33.06-27.922-24.19-39.724,5.964-8.52,20.671-5.897,31.022,1.74l.042,37.582-6.874.402Z"/>
      </g>
    </g>
  </g>
</svg>