<?xml version="1.0" encoding="UTF-8"?>
<svg id="Laag_1" xmlns="http://www.w3.org/2000/svg" version="1.1" viewBox="0 0 300 300">
  <!-- Generator: Adobe Illustrator 30.3.0, SVG Export Plug-In . SVG Version: 2.1.3 Build 182)  -->
  <defs>
    <style>
      .st0 {
        fill: #474747;
      }

      .st1 {
        fill: #d2d2d2;
      }

      .st2 {
        fill: #464646;
      }

      .st3 {
        fill: #fefefe;
      }

      .st4 {
        fill: #f7f7f7;
      }

      .st5 {
        fill: #d1d1d1;
      }
    </style>
  </defs>
  <rect class="st3" width="300" height="300"/>
  <g>
    <path class="st2" d="M132.242,168.253c9.569-7.08,17.689-16.78,14.302-27.275-34.898,36.065-37.288,6.637-53.422,35.085-7.796,11.696-31.616.672-40.748-5.351-21.335-16.078,5.201-38.804,13.93-53.443,14.045-16.608,11.618-40.745,30.339-53.498,5.644-4.302,8.511-10.118,9.092-16.971,1.139-13.437,14.534-18.368,17.791-15.215l21.722,21.031c85.046,8.501,109.809,97.135,80.491,167.83,24.177,6.555,21.208,31.888,21.213,51.57l-176.46-.056c-1.528-19.797-1.086-45.932,22.276-51.625,5.274-22.955,21.569-37.51,39.473-52.083Z"/>
    <path class="st4" d="M236.47,237.125c4.226,7.739,3.788,18.103,3.489,27.825H77.901c-.65-9.918-.704-22.551,4.167-29.255,3.456,1.639.356,1.216.473,1.096,3.618-3.725,31.15-5.759,38.262-6.264,37.075-.921,79.985-4.11,115.667,6.598Z"/>
    <path class="st1" d="M173.671,215.043c2.476-6.163,5.312-11.823,9.081-17.309,42.795-48.665,36.368-116.789-31.33-136.944,75.389,10.593,94.14,96.878,67.595,158.012-15.415-2.429-29.904-3.479-45.346-3.759Z"/>
    <path class="st3" d="M236.47,237.125c-.258.471-.741.809-1.348.657-21.264-5.684-43.178-5.755-65.147-6.004-28.28-.014-60.793-.848-87.884,6.538,4.227-24.177,99.701-15.536,121.408-14.819,12.968,1.119,27.32,3.279,32.971,13.628Z"/>
    <g>
      <path class="st4" d="M151.422,60.79c55.393,12.007,74.864,65.228,49.618,113.606-8.907,12.283-17.028,25.16-24.364,38.631l-3.006,2.016c-24.489-.444-48.246-.049-72.904,3.277,8.152-35.065,53.695-42.722,54.947-77.119,3.41-9.186,4.529-18.362,3.358-27.531l-9.66,15.269-2.458.145c-10.902,12.989-28.235,33.87-45.436,18.978-3.184-1.074-3.975.217-5.432,2.695-2.606,9.332-7.093,17.131-13.46,23.399-11.054-2.164-28.505-4.5-30.8-17.617l1.721-3.591,32.539-40.821c7.085-17.964,10.666-36.82,29.747-46.531,7.736-6.555,6.039-15.107,4.07-24.046l1.55-2.222,20.782,20.313c3.292.23,6.028.66,9.187,1.15Z"/>
      <path class="st3" d="M121.453,39.327c3.194,13.963,4.183,22.753-7.785,30.303-22.432,14.153-18.713,34.754-26.974,45.074-2.081,1.708-32.77,43.042-34.869,41.835-3.002-7.904,20.53-33.681,23.651-40.07,12.11-17.154,8.715-34.418,25.678-47.286,15.087-9.466,8.806-34.965,20.299-29.856Z"/>
      <path class="st1" d="M155.257,148.084c-.361-7.056-2.991-14.157-8.303-18.999l12.646-19.99c5.477,12.443-.323,26.899-4.343,38.989Z"/>
      <path class="st5" d="M117.832,153.298c-16.264,3-19.365-.136-30.712,18.832-.951,1.398-2.59,2.258-4.495,2.026.627-1.728,1.612-3.189,2.739-4.755,8.586-10.432,5.641-26.398,17.241-23.008,4.086,2.132,10.594,7.374,15.226,6.904Z"/>
      <path class="st0" d="M130.43,92.502c-2.015,10.699-15.741,4.053-23.135,9.189,1.262-10.924,8.77-21.239,17.348-17.901,2.839,1.105,6.551,4.66,5.788,8.711Z"/>
    </g>
  </g>
</svg>