<?xml version="1.0" encoding="UTF-8"?>
<svg id="Laag_1" xmlns="http://www.w3.org/2000/svg" version="1.1" viewBox="0 0 300 300">
  <!-- Generator: Adobe Illustrator 30.3.0, SVG Export Plug-In . SVG Version: 2.1.3 Build 182)  -->
  <defs>
    <style>
      .st0 {
        fill: #d2d2d2;
      }

      .st1 {
        fill: #464646;
      }

      .st2 {
        fill: #fefefe;
      }

      .st3 {
        fill: #f7f7f7;
      }

      .st4 {
        fill: #fdfdfd;
      }
    </style>
  </defs>
  <rect class="st2" width="300" height="300"/>
  <g>
    <path class="st1" d="M228.894,271.991l-158.683.022c-4.084-61.402,46.589-48.313,53.979-98.966l-16.302.056c-5.053-6.225-7.885-13.672-6.742-22.146l18.863-12.283c-38.248-39.073,20.232-97.766,59.385-59.642,16.595,16.377,16.847,42.673.477,59.609l18.991,12.524c1.182,7.849-2.962,14.94-6.223,21.739l-17,.189c7.085,51.367,58.153,35.843,53.254,98.9Z"/>
    <g>
      <path class="st3" d="M208.08,227.998c10.051,9.092,14.397,23.039,14.122,36.945l-144.693.008c-.035-21.642,22.456-32.524,37.366-44.299,10.588-13.268,11.169-32.531,17.949-47.479,14.769,13.699,29.615,27.451,44.538,41.255,9.203,5.941,20.945,8.983,30.718,13.569Z"/>
      <path class="st3" d="M172.607,82.629c16.073,19.472,6.623,44.606-15.458,54.524l9.437.447,1.321,2.065c10.352,5.349,13.395,23.503-.045,26.332,1.309,4.43-32.905,2.171-34.191,2.004l-1.454-2-20.195-.294c-10.155-12.875,1.92-12.695,11.248-13.184,1.027-3.629,2.34-7.502,5.264-9.998.08-.069.104,1.722-.659-.526,1.436-.969,2.433-1.629,4.367-2.725-8.741-5.391-14.021-13.165-16.215-22.15.002-15.236,15.204-40.864,31.353-42.014.17-.012-2.627,1.437-2.506-.57,10.119-1.508,19.971,1.499,27.734,8.09Z"/>
      <path class="st0" d="M167.861,165.998c-1.075,27.46,18.081,48.404,40.219,62.001-29.618-1.629-55.498-34.777-75.469-53.077-.392-.135-1.126.526-1.468.941l1.073-9.86,35.645-.005Z"/>
      <path class="st2" d="M77.64,261.155c-.678-36.448,36.01-39.221,48.285-68.124,2.307,6.997-3.908,23.501-9.738,29.126l-22.87,17.042c-7.267,5.415-12.024,12.989-14.385,21.951.136.865-1.063,1.19-1.291.006Z"/>
      <path class="st0" d="M167.906,139.666l-21.148-1.002c27.682-7.155,39.874-30.305,25.849-56.034,18.477,15.545,14.827,43.493-4.7,57.036Z"/>
      <path class="st0" d="M167.861,165.998c10.677-6.924,7.047-16.834,1.223-25.785l22.634,14.859c-.099,4.18-1.509,7.592-3.872,10.915l-19.985.011Z"/>
      <path class="st4" d="M144.873,74.54c.827.39,1.889.043,3.084.795-18.116,6.412-26.125,24.802-31.931,41.79-4.872-19.95,8.688-39.58,28.847-42.585Z"/>
      <path class="st4" d="M110.164,153.95c1.294-.24,18.563-14.19,19.832-11.7-2.315,3.971-4.263,7.792-5.233,12.685-1.299-.424-14.444,1.157-14.599-.985Z"/>
    </g>
  </g>
</svg>