<?xml version="1.0" encoding="UTF-8"?>
<svg id="Laag_1" xmlns="http://www.w3.org/2000/svg" version="1.1" viewBox="0 0 300 300">
  <!-- Generator: Adobe Illustrator 30.3.0, SVG Export Plug-In . SVG Version: 2.1.3 Build 182)  -->
  <defs>
    <style>
      .st0 {
        fill: #d2d2d2;
      }

      .st1 {
        fill: #464646;
      }

      .st2 {
        fill: #fefefe;
      }

      .st3 {
        fill: #f7f7f7;
      }

      .st4 {
        fill: #fcfcfc;
      }

      .st5 {
        fill: #fdfdfd;
      }
    </style>
  </defs>
  <g>
    <path class="st1" d="M216.479,100.978c3.299-13.679,14.864-21.796,28.045-21.246,29.6,1.015,34.617,45.468,4.965,52.9l-36.039,86.563c28.271,5.412,25.711,30.614,25.502,52.811l-176.732-.005c-.713-21.54-.464-48.584,26.265-52.723l-36.092-86.681c-26.34-6.411-26.818-45.857-.357-52.05,20.639-6.125,41.955,17.147,30.737,36.746,5.372,5.486,12.1,13.413,17.738,18.766,3.495-17.206.295-34.183,3.88-51.37-28.859-13.384-14.819-59.154,17.613-52.502,21.547,3.34,30.06,31.421,14.711,46.956l13.958,41.204,14.86-41.148c-19.477-18.036-2.628-50.614,22.653-47.376,26.434.792,34.603,41.035,10.359,51.861-.688,14.892,1.84,37.331,1.956,52.543,6.552-4.744,12.43-13.435,18.414-18.822-2.642-5.168-3.849-10.571-2.437-16.426Z"/>
    <g>
      <g>
        <path class="st3" d="M128.095,42.186c10.879,9.771-5.35,20.653-5.319,31.212,10.147,22.865,18.891,45.681,28.115,69.071l23.102-66.062c-17.977-9.644-3.702-35.232,12.208-37.634,11.98-.002,19.13,10.185,11.454,20.385-4.83,5.211-8.243,10.846-10.238,16.905,2.987,25.61,5.397,52.197,6.956,78.018l33.55-35.667c-12.388-13.266,12.934-43.122,28.238-26.382,8.902,13.107.158,23.77-12.525,28.718-5.49,6.573-10.274,14.29-14.355,23.151-19.158,29.162-41.214,69.998-80.295,71.037-17.479.043-34.931.575-53.32,3.086l-38.068-91.675c-26.426-3.43-18.395-35.254,2.591-39.563,7.383.268,14.248,5.746,11.735,13.523-3.768,7.772-3.395,14.293,1.117,19.563,11.718,10.702,22.657,23.244,34.529,33.809l3.531-74.648c-29.399-5.509-4.947-52.179,16.993-36.849Z"/>
        <path class="st0" d="M148.986,214.938c45.233-7.565,68.538-55.765,89.831-92.112,1.928-3.59,6.598-5.252,9.894-6.958,9.67-5.005,10.708-13.665,7.452-23.835,12.626,10.806,5.055,33.122-11.942,34.286l-38.085,91.687c-19.549-2.662-38.351-3.115-57.149-3.067Z"/>
        <path class="st0" d="M193.179,136.012l-7.698-58.99c-1.303-11.131,19.906-19.943,11.639-34.796,14.349,9.028,10.933,32.999-6.474,37.135l2.534,56.651Z"/>
        <path class="st0" d="M145.902,130.063l-24.489-54.412c-4.654-10.34,14.613-20.321,6.682-33.464,12.468,7.63,12.483,26.932-.168,34.413l17.975,53.464Z"/>
        <path class="st0" d="M98.127,144.962l-25.709-23.346c-12.34-11.206,1.921-18.412-3.194-31.678,9.706,5.966,12.905,18.923,4.694,28.393,1.66,2.389,24.499,24.097,24.21,26.631Z"/>
        <path class="st5" d="M118.21,38.807c-10.083,4.668-17.453,13.611-19.333,25.072-.22,1.339-1.007,2.439-1.851,3.067-5.699-13.525,6.066-30.055,21.184-28.139Z"/>
        <path class="st4" d="M186.201,38.773c-10.968,5.213-18.164,15.608-20.559,27.443-5.746-13.135,6.548-28.691,20.559-27.443Z"/>
        <path class="st4" d="M60.189,86.788c-8.824,4.033-14.914,11.923-17.798,21.66-.461,1.555-.924,2.925-2.272,3.45-4.337-12.529,6.987-26.392,20.07-25.109Z"/>
        <path class="st4" d="M244.181,86.8c-8.972,4.464-15.411,12.246-17.975,22.472-.315,1.256-1.049,1.877-2.206,1.771-4.195-12.171,7.806-25.501,20.181-24.242Z"/>
      </g>
      <g>
        <path class="st3" d="M228.46,237.118c4.546,5.963,3.071,20.795,3.543,27.832l-162.112-.003c-.402-9.255-.983-18.752,2.965-27.002,27.158-11.627,127.671-11.816,155.604-.828Z"/>
        <path class="st2" d="M228.46,237.118c-1.574,1.608-3.347-.159-5.044-.521-25.652-5.521-52.237-4.812-78.395-4.815-22.893.028-45.296.331-67.622,5.561-1.576.369-3.154,2.498-4.543.603,15.006-23.949,84.001-14.743,112.19-15.283,14.818,1.808,34.782.321,43.414,14.455Z"/>
      </g>
    </g>
  </g>
</svg>