<?xml version="1.0" encoding="UTF-8"?>
<svg id="Laag_1" xmlns="http://www.w3.org/2000/svg" version="1.1" viewBox="0 0 300 300">
  <!-- Generator: Adobe Illustrator 30.3.0, SVG Export Plug-In . SVG Version: 2.1.3 Build 182)  -->
  <defs>
    <style>
      .st0 {
        fill: #f6f6f6;
      }

      .st1 {
        fill: #464646;
      }

      .st2 {
        fill: #fafafa;
      }

      .st3 {
        fill: #fefefe;
      }

      .st4 {
        fill: #f7f7f7;
      }

      .st5 {
        fill: #f3f3f3;
      }

      .st6 {
        fill: #fcfcfc;
      }

      .st7 {
        fill: #fdfdfd;
      }
    </style>
  </defs>
  <g>
    <path class="st1" d="M237.96,271.985l-175.934.024c-.044-21.066-2.898-46.875,23.93-52.267l11.048-92.395c-27.166-11.013-18.18-41.318-22.981-64.184,11.201-6.842,23.751-9.807,36.688-9.133l5.732,26.493c2.982.789,5.461.645,8.328.35l3.406-29.816c14.561-2.969,29.085-2.97,43.646,0l3.408,29.842c2.622.258,4.78.215,8.088-.042l5.991-26.823c12.899-.682,25.474,2.29,36.665,9.128-4.828,22.935,4.257,53.16-23.08,64.227l11.16,92.353c26.821,5.404,23.966,31.214,23.904,52.242Z"/>
    <g>
      <g>
        <path class="st7" d="M94.246,62.523c1.632,2.34-6.156,10.951-5.925,21.759-.484.726.758,25.441-1.392,24.472-3.579-4.282-4.146-35.981-5.142-41.542,4.112-2.646,8.196-3.754,12.459-4.689Z"/>
        <path class="st5" d="M206.57,217.901c-38.56-4.065-75.878-4.148-113.181.133l10.682-89.74c30.819-4.888,61.051-4.891,91.867-.017l10.631,89.624Z"/>
        <path class="st6" d="M150.574,55.824c-9.336,4.488-11.987,11.166-17.741,16.694l1.567-15.312c5.453-.999,10.644-1.442,16.174-1.383Z"/>
        <path class="st0" d="M192.643,72.39c1.16-.124,2.009-1.074,2.549-2.849,2.711-3.385,5.752-5.818,9.124-7.3,4.855.758,9.316,2.403,13.888,4.851-2.645,17,2.459,50.331-20.934,54.585-16.151-2.12-31.828-4.088-48.261-4.019-15.773.066-30.674,2.039-46.291,4.038-6.895-1.656-13.192-6.301-15.789-12.941-2.599-15.815-.849-30.618,5.25-44.408,3.209-3.291,8.061-2.906,12.715-3.02l6.077,26.671,20.017.048c1.096-22.904,9.217-37.215,34.483-30.667l3.562,30.656,19.971-.029,3.639-15.614Z"/>
        <path class="st2" d="M204.316,62.241c-1.57,4.228-7.582,6.999-10.808,12.957-2.325-1.855,1.56-11.658,1.619-13.899,3.342-.259,6.121.463,9.189.942Z"/>
      </g>
      <g>
        <path class="st4" d="M227.378,237.128c4.605,7.137,3.963,18.189,3.719,27.877H68.904c-.316-13.73-2.253-31.863,15.176-31.485,45.597-4.543,98.853-9.095,143.297,3.609Z"/>
        <path class="st3" d="M227.378,237.128c-.825,1.181-2.215.454-3.53.108-23.704-5.979-56.601-5.474-81.826-5.428-22.045.034-43.527.441-65.045,5.141-1.567.342-3.218,1.615-4.074-.337,15.022-22.475,93.9-13.663,120.775-13.208,12.989,1.074,28.756,3.328,33.701,13.723Z"/>
      </g>
    </g>
  </g>
</svg>