<svg xmlns="http://www.w3.org/2000/svg" width="192" height="192" viewBox="0 0 2048 2048">
  <g transform="scale(1,-1) translate(0,-2048)">
    <path fill="#f9f9f9" d="M1079 566H1497L1749 471V205L1497 299H1079ZM1027 1856 1247 1636 1131 1520V1486Q1251 1488 1345.0 1454.5Q1439 1421 1439 1421L1219 1201L1302 1118L1539 1355Q1609 1301 1622.5 1231.0Q1636 1161 1636 1161V975Q1618 864 1566.0 789.5Q1514 715 1514 715V675H539V724Q459 819 439.0 896.0Q419 973 419 973V1159Q420 1285 498.5 1351.5Q577 1418 670.5 1448.0Q764 1478 842.0 1482.0Q920 1486 920 1486V1519L806 1634ZM970 566V299H551L300 205V471L551 566Z"/>
    <path fill="#101010" d="M1079 566H1497L1749 471V205L1497 299H1079ZM1027 1856 1247 1636 1131 1520V1486Q1251 1488 1345.0 1454.5Q1439 1421 1439 1421L1219 1201L1302 1118L1539 1355Q1609 1301 1622.5 1231.0Q1636 1161 1636 1161V975Q1618 864 1566.0 789.5Q1514 715 1514 715V675H539V724Q459 819 439.0 896.0Q419 973 419 973V1159Q420 1285 498.5 1351.5Q577 1418 670.5 1448.0Q764 1478 842.0 1482.0Q920 1486 920 1486V1519L806 1634ZM970 566V299H551L300 205V471L551 566ZM912 1635 1027 1519 1143 1635 1027 1751Z"/>
  </g>
</svg>