<svg xmlns="http://www.w3.org/2000/svg" width="192" height="192" viewBox="0 0 2048 2048">
  <g transform="scale(1,-1) translate(0,-2048)">
    <path fill="#f9f9f9" d="M1178 1543H1246V1412H1426Q1426 1412 1485.0 1398.0Q1544 1384 1618.0 1340.5Q1692 1297 1759.5 1215.0Q1827 1133 1845 997V795Q1845 795 1823.0 708.5Q1801 622 1645 514V205H1024H403V514Q246 622 224.5 708.5Q203 795 203 795V997Q220 1133 287.5 1215.0Q355 1297 429.5 1340.5Q504 1384 563.0 1398.0Q622 1412 622 1412H802V1543H870Q857 1570 857 1603Q857 1671 905.0 1722.5Q953 1774 1024 1774Q1094 1774 1142.5 1722.5Q1191 1671 1191 1603Q1191 1570 1178 1543Z"/>
    <path fill="#101010" d="M1178 1543H1246V1412H1426Q1426 1412 1485.0 1398.0Q1544 1384 1618.0 1340.5Q1692 1297 1759.5 1215.0Q1827 1133 1845 997V795Q1845 795 1823.0 708.5Q1801 622 1645 514V205H1024H403V514Q246 622 224.5 708.5Q203 795 203 795V997Q220 1133 287.5 1215.0Q355 1297 429.5 1340.5Q504 1384 563.0 1398.0Q622 1412 622 1412H802V1543H870Q857 1570 857 1603Q857 1671 905.0 1722.5Q953 1774 1024 1774Q1094 1774 1142.5 1722.5Q1191 1671 1191 1603Q1191 1570 1178 1543ZM1148 1495Q1129 1477 1097.5 1459.0Q1066 1441 1024 1441Q951 1441 901 1495H892V1414L1000 1004H1024H1048L1156 1414V1495ZM482 460Q482 460 643.5 415.0Q805 370 1024 495Q1242 370 1404.5 415.0Q1567 460 1567 460L1645 513Q1645 536 1645.0 569.5Q1645 603 1645 627Q1499 500 1338.5 505.5Q1178 511 1024 606Q879 510 710.5 509.0Q542 508 403 621V513Q441 485 482 460Z"/>
  </g>
</svg>