<svg xmlns="http://www.w3.org/2000/svg" width="192" height="192" viewBox="0 0 2048 2048">
  <g transform="scale(1,-1) translate(0,-2048)">
    <g fill="#fff">
      <path d="M817 1444V1286H979ZM990 1797 991 1822 1199 1614Q1407 1546 1515.5 1454.0Q1624 1362 1670.5 1278.5Q1717 1195 1721.5 1136.5Q1726 1078 1726 1078V207H397V288Q418 366 507.5 409.0Q597 452 696.0 471.5Q795 491 874.5 494.5Q954 498 954 498L1049 608V701H969Q867 784 819 869L553 731H457L292 884V965L619 1276V1312H583V1363Q626 1408 674.0 1452.5Q722 1497 767 1523Q857 1574 923.5 1585.0Q990 1596 990 1596Z"/>
    </g>
    <path fill-rule="evenodd" d="M817 1444V1286H979ZM990 1797 991 1822 1199 1614Q1407 1546 1515.5 1454.0Q1624 1362 1670.5 1278.5Q1717 1195 1721.5 1136.5Q1726 1078 1726 1078V207H397V288Q418 366 507.5 409.0Q597 452 696.0 471.5Q795 491 874.5 494.5Q954 498 954 498L1049 608V701H969Q867 784 819 869L553 731H457L292 884V965L619 1276V1312H583V1363Q626 1408 674.0 1452.5Q722 1497 767 1523Q857 1574 923.5 1585.0Q990 1596 990 1596Z"/>
  </g>
</svg>