<svg xmlns="http://www.w3.org/2000/svg" width="192" height="192" viewBox="0 0 2048 2048">
  <g transform="scale(1,-1) translate(0,-2048)">
    <path fill="#f9f9f9" d="M930 1336Q873 1382 873 1454Q873 1517 917.0 1561.0Q961 1605 1024 1605Q1086 1605 1130.5 1561.0Q1175 1517 1175 1454Q1175 1381 1118 1336Q1206 1309 1263.5 1236.0Q1321 1163 1321 1070Q1321 907 1173 828Q1332 789 1446.5 678.0Q1561 567 1577 425Q1578 419 1578 392L1579 339L1578 205H470Q469 205 469.0 264.5Q469 324 469 345Q469 367 469.0 391.5Q469 416 470 424Q488 571 603.5 681.0Q719 791 879 829Q731 910 731 1070Q731 1163 786 1237Q840 1308 930 1336Z"/>
    <path fill="#101010" d="M930 1336Q873 1382 873 1454Q873 1517 917.0 1561.0Q961 1605 1024 1605Q1086 1605 1130.5 1561.0Q1175 1517 1175 1454Q1175 1381 1118 1336Q1206 1309 1263.5 1236.0Q1321 1163 1321 1070Q1321 907 1173 828Q1332 789 1446.5 678.0Q1561 567 1577 425Q1578 419 1578 392L1579 339L1578 205H470Q469 205 469.0 264.5Q469 324 469 345Q469 367 469.0 391.5Q469 416 470 424Q488 571 603.5 681.0Q719 791 879 829Q731 910 731 1070Q731 1163 786 1237Q840 1308 930 1336Z"/>
  </g>
</svg>