<svg xmlns="http://www.w3.org/2000/svg" width="192" height="192" viewBox="0 0 2048 2048">
  <g transform="scale(1,-1) translate(0,-2048)">
    <path fill="#f9f9f9" d="M1660 482H1244Q1197 482 1131.5 525.5Q1066 569 1024 620Q982 569 916.0 525.5Q850 482 804 482H388V519L197 1326Q293 1164 358.5 1131.0Q424 1098 486 1002Q518 1182 542.0 1283.5Q566 1385 592 1525L845 963L1024 1823L1203 963L1456 1525L1548 995Q1602 1082 1679.5 1120.0Q1757 1158 1851 1326L1660 519ZM388 384H1660V520H388ZM1660 384V205H1024H388V384Q463 384 581.5 384.0Q700 384 776 384Q828 384 899.5 411.0Q971 438 1024 504Q1057 464 1122.0 424.5Q1187 385 1272 384Q1347 384 1465.5 384.0Q1584 384 1660 384Z"/>
    <path fill="#101010" d="M1660 482H1244Q1197 482 1131.5 525.5Q1066 569 1024 620Q982 569 916.0 525.5Q850 482 804 482H388V519L197 1326Q293 1164 358.5 1131.0Q424 1098 486 1002Q518 1182 542.0 1283.5Q566 1385 592 1525L845 963L1024 1823L1203 963L1456 1525L1548 995Q1602 1082 1679.5 1120.0Q1757 1158 1851 1326L1660 519ZM1660 384V205H1024H388V384Q463 384 581.5 384.0Q700 384 776 384Q828 384 899.5 411.0Q971 438 1024 504Q1057 464 1122.0 424.5Q1187 385 1272 384Q1347 384 1465.5 384.0Q1584 384 1660 384Z"/>
  </g>
</svg>