<?xml version="1.0" encoding="UTF-8"?>
<!DOCTYPE svg PUBLIC "-//W3C//DTD SVG 1.1//EN" "http://www.w3.org/Graphics/SVG/1.1/DTD/svg11.dtd" >
<svg xmlns="http://www.w3.org/2000/svg" width="192" height="192" viewBox="0 0 192 192">
  <g transform="translate(0,192) scale(1,-1)">
    <path fill="#f9f9f9" d="M93 55 c-1 -1 -4 -4 -7 -6 l-6 -4 -22 0 -22 0 0 -5 0 -4 22 0 c24 1
25 1 33 7 l5 4 3 -3 c8 -7 9 -7 34 -8 l23 0 0 4 0 5 -21 0 c-12 0 -22 0 -23 0
-1 0 -7 4 -12 8 -5 4 -5 4 -7 2z"/>
    <path fill="currentColor" fill-rule="evenodd" d="M93 157 c-2 -7 -5 -24 -8 -37 -3 -13 -5 -25 -6 -26 0 -3 -2 0 -14 27
-6 12 -10 20 -10 19 0 -1 -3 -11 -5 -22 -2 -11 -4 -21 -5 -22 0 -1 -18 14 -23
21 -1 2 -3 4 -3 3 0 0 4 -16 8 -34 4 -19 8 -36 9 -38 l0 -3 22 0 c24 0 23 0
34 9 l4 3 5 -5 c4 -3 8 -5 11 -6 2 -1 12 -1 23 -1 l20 0 8 36 c5 19 9 37 9 38
0 2 -1 1 -4 -4 -3 -3 -7 -8 -10 -9 -2 -2 -6 -5 -9 -7 -2 -3 -4 -4 -4 -4 -1 0
-3 10 -5 22 -2 11 -4 21 -4 22 0 1 -3 -4 -7 -12 -11 -25 -17 -36 -17 -34 -1 1
-4 16 -7 34 -4 17 -8 34 -8 37 l-2 6 -2 -13z M92 44 c-1 -2 -4 -4 -7 -5 -4 -2 -6 -3 -27 -3 l-22 0 0 -9 0 -8 60 0
59 0 0 8 0 9 -23 0 c-24 1 -25 1 -32 7 -3 2 -5 3 -5 3 0 0 -2 -1 -3 -2z"/>
  </g>
</svg>