<svg xmlns="http://www.w3.org/2000/svg" width="192" height="192" viewBox="0 0 2048 2048">
  <g transform="scale(1,-1) translate(0,-2048)">
    <path fill="#f9f9f9" d="M970 566V299H551L300 205V471L551 566ZM1027 1856 1246 1636 1130 1520 1147 1486Q1267 1486 1352.5 1453.5Q1438 1421 1438 1421L1218 1201L1301 1118L1539 1355Q1609 1301 1622.0 1231.0Q1635 1161 1635 1161V975Q1617 864 1565.0 789.5Q1513 715 1513 715V675H539V724Q459 819 439.0 896.0Q419 973 419 973V1159Q420 1285 496.0 1351.5Q572 1418 662.0 1448.0Q752 1478 827.0 1482.0Q902 1486 902 1486L920 1519L805 1634ZM1078 566H1497L1748 471V205L1497 299H1078Z"/>
    <path fill="#101010" d="M970 566V299H551L300 205V471L551 566ZM894 491H563L374 419V311L532 371H894ZM1153 489V374H1513L1673 311V419L1487 489ZM922 1410Q922 1410 856.0 1407.5Q790 1405 710.5 1382.5Q631 1360 563.5 1309.0Q496 1258 493 1161V976Q493 976 514.5 908.0Q536 840 610 749H1439Q1439 749 1494.0 831.0Q1549 913 1562 982V1159Q1562 1195 1534 1251L1299 1017L1113 1202L1300 1389Q1303 1390 1249.5 1401.5Q1196 1413 1127 1410L1026 1467ZM1027 1856 1246 1636 1130 1520 1147 1486Q1267 1486 1352.5 1453.5Q1438 1421 1438 1421L1218 1201L1301 1118L1539 1355Q1609 1301 1622.0 1231.0Q1635 1161 1635 1161V975Q1617 864 1565.0 789.5Q1513 715 1513 715V675H539V724Q459 819 439.0 896.0Q419 973 419 973V1159Q420 1285 496.0 1351.5Q572 1418 662.0 1448.0Q752 1478 827.0 1482.0Q902 1486 902 1486L920 1519L805 1634ZM1078 566H1497L1748 471V205L1497 299H1078ZM910 1635 1025 1519 1141 1635 1025 1751Z"/>
  </g>
</svg>