<svg xmlns="http://www.w3.org/2000/svg" width="192" height="192" viewBox="0 0 2048 2048">
  <g transform="scale(1,-1) translate(0,-2048)">
    <g fill="#fff">
      <path d="M1332 485Q1501 485 1595.5 567.5Q1690 650 1717 679Q1754 719 1762.0 755.5Q1770 792 1770 792V987Q1770 1058 1729.5 1125.5Q1689 1193 1648 1228Q1586 1279 1519.0 1307.5Q1452 1336 1420 1336H1213L1062 723V561Q1062 561 1139.0 520.5Q1216 480 1332 485ZM1148 1495Q1129 1477 1097.5 1459.0Q1066 1441 1024 1441Q951 1441 901 1495H892V1414L1000 1004H1024H1048L1156 1414V1495ZM717 488Q777 488 826.5 499.0Q876 510 912 524Q947 537 966.5 548.5Q986 560 986 560V723L837 1336H623Q617 1336 568.0 1324.5Q519 1313 459.0 1276.5Q399 1240 345.0 1169.5Q291 1099 277 981V792Q305 652 445.0 569.5Q585 487 717 488ZM1024 495Q805 370 643.5 415.0Q482 460 482 460V281H1024H1566V460Q1566 460 1404.0 415.0Q1242 370 1024 495ZM1178 1543H1246V1412H1426Q1426 1412 1485.0 1398.0Q1544 1384 1618.0 1340.5Q1692 1297 1759.5 1215.0Q1827 1133 1845 997V795Q1845 795 1823.0 708.5Q1801 622 1645 514V205H1024H403V514Q246 622 224.5 708.5Q203 795 203 795V997Q220 1133 287.5 1215.0Q355 1297 429.5 1340.5Q504 1384 563.0 1398.0Q622 1412 622 1412H802V1543H870Q857 1570 857 1603Q857 1671 905.0 1722.5Q953 1774 1024 1774Q1094 1774 1142.5 1722.5Q1191 1671 1191 1603Q1191 1570 1178 1543ZM1024 1701Q929 1701 929 1608Q929 1514 1024 1514Q1119 1514 1119 1608Q1119 1701 1024 1701Z"/>
    </g>
    <path fill-rule="evenodd" d="M1332 485Q1501 485 1595.5 567.5Q1690 650 1717 679Q1754 719 1762.0 755.5Q1770 792 1770 792V987Q1770 1058 1729.5 1125.5Q1689 1193 1648 1228Q1586 1279 1519.0 1307.5Q1452 1336 1420 1336H1213L1062 723V561Q1062 561 1139.0 520.5Q1216 480 1332 485ZM1148 1495Q1129 1477 1097.5 1459.0Q1066 1441 1024 1441Q951 1441 901 1495H892V1414L1000 1004H1024H1048L1156 1414V1495ZM717 488Q777 488 826.5 499.0Q876 510 912 524Q947 537 966.5 548.5Q986 560 986 560V723L837 1336H623Q617 1336 568.0 1324.5Q519 1313 459.0 1276.5Q399 1240 345.0 1169.5Q291 1099 277 981V792Q305 652 445.0 569.5Q585 487 717 488ZM1024 495Q805 370 643.5 415.0Q482 460 482 460V281H1024H1566V460Q1566 460 1404.0 415.0Q1242 370 1024 495ZM1178 1543H1246V1412H1426Q1426 1412 1485.0 1398.0Q1544 1384 1618.0 1340.5Q1692 1297 1759.5 1215.0Q1827 1133 1845 997V795Q1845 795 1823.0 708.5Q1801 622 1645 514V205H1024H403V514Q246 622 224.5 708.5Q203 795 203 795V997Q220 1133 287.5 1215.0Q355 1297 429.5 1340.5Q504 1384 563.0 1398.0Q622 1412 622 1412H802V1543H870Q857 1570 857 1603Q857 1671 905.0 1722.5Q953 1774 1024 1774Q1094 1774 1142.5 1722.5Q1191 1671 1191 1603Q1191 1570 1178 1543ZM1024 1701Q929 1701 929 1608Q929 1514 1024 1514Q1119 1514 1119 1608Q1119 1701 1024 1701Z"/>
  </g>
</svg>