<svg xmlns="http://www.w3.org/2000/svg" width="192" height="192" viewBox="0 0 2048 2048">
  <g transform="scale(1,-1) translate(0,-2048)">
    <g fill="#fff">
      <path d="M990 1794 991 1820 1199 1612Q1407 1544 1515.5 1452.0Q1624 1360 1670.5 1276.0Q1717 1192 1721.5 1134.0Q1726 1076 1726 1076V205H397V286Q418 364 507.5 406.5Q597 449 696.0 468.5Q795 488 874.5 491.5Q954 495 954 495L1049 606V699H969Q867 782 819 867L553 729H457L292 881V962L619 1273V1309H583V1360Q626 1406 674.0 1450.5Q722 1495 767 1521Q857 1572 923.5 1583.0Q990 1594 990 1594ZM828 1432 969 1294H828ZM1067 1532Q1067 1532 964.5 1512.0Q862 1492 811 1460Q720 1405 646 1309H685V1236L361 923L500 790L836 965Q876 916 920.0 856.5Q964 797 1006 772H1125V576L986 421Q986 421 920.5 419.0Q855 417 771.0 405.5Q687 394 606.0 370.0Q525 346 494 302V284L1642 286V1054Q1642 1054 1638.5 1107.0Q1635 1160 1593.0 1235.5Q1551 1311 1453.0 1395.0Q1355 1479 1167 1541L1067 1638Z"/>
    </g>
    <path fill-rule="evenodd" d="M990 1794 991 1820 1199 1612Q1407 1544 1515.5 1452.0Q1624 1360 1670.5 1276.0Q1717 1192 1721.5 1134.0Q1726 1076 1726 1076V205H397V286Q418 364 507.5 406.5Q597 449 696.0 468.5Q795 488 874.5 491.5Q954 495 954 495L1049 606V699H969Q867 782 819 867L553 729H457L292 881V962L619 1273V1309H583V1360Q626 1406 674.0 1450.5Q722 1495 767 1521Q857 1572 923.5 1583.0Q990 1594 990 1594ZM828 1432 969 1294H828ZM1067 1532Q1067 1532 964.5 1512.0Q862 1492 811 1460Q720 1405 646 1309H685V1236L361 923L500 790L836 965Q876 916 920.0 856.5Q964 797 1006 772H1125V576L986 421Q986 421 920.5 419.0Q855 417 771.0 405.5Q687 394 606.0 370.0Q525 346 494 302V284L1642 286V1054Q1642 1054 1638.5 1107.0Q1635 1160 1593.0 1235.5Q1551 1311 1453.0 1395.0Q1355 1479 1167 1541L1067 1638Z"/>
  </g>
</svg>