<svg xmlns="http://www.w3.org/2000/svg" width="192" height="192" viewBox="0 0 2048 2048">
  <g transform="scale(1,-1) translate(0,-2048)">
    <g fill="#fff">
      <path d="M1024 1423 853 653 625 1216 543 771Q489 873 368 963Q394 840 420.5 716.5Q447 593 474 470H804Q850 470 916.0 513.5Q982 557 1024 608Q1066 557 1131.5 513.5Q1197 470 1244 470H1574L1680 965Q1578 898 1505 771L1423 1216L1195 653ZM1024 205H388V519L197 1326Q293 1164 358.5 1131.0Q424 1098 486 1002Q518 1182 542.0 1283.5Q566 1385 592 1525L845 963L1024 1823L1203 963L1456 1525L1548 995Q1602 1082 1679.5 1120.0Q1757 1158 1851 1326L1660 519V205ZM1024 282H1574V392Q1498 392 1422.5 392.0Q1347 392 1272 392Q1187 394 1122.0 433.5Q1057 473 1024 513Q971 447 899.5 419.5Q828 392 776 392Q700 392 624.5 392.0Q549 392 474 392V282Z"/>
    </g>
    <path fill-rule="evenodd" d="M1024 1423 853 653 625 1216 543 771Q489 873 368 963Q394 840 420.5 716.5Q447 593 474 470H804Q850 470 916.0 513.5Q982 557 1024 608Q1066 557 1131.5 513.5Q1197 470 1244 470H1574L1680 965Q1578 898 1505 771L1423 1216L1195 653ZM1024 205H388V519L197 1326Q293 1164 358.5 1131.0Q424 1098 486 1002Q518 1182 542.0 1283.5Q566 1385 592 1525L845 963L1024 1823L1203 963L1456 1525L1548 995Q1602 1082 1679.5 1120.0Q1757 1158 1851 1326L1660 519V205ZM1024 282H1574V392Q1498 392 1422.5 392.0Q1347 392 1272 392Q1187 394 1122.0 433.5Q1057 473 1024 513Q971 447 899.5 419.5Q828 392 776 392Q700 392 624.5 392.0Q549 392 474 392V282Z"/>
  </g>
</svg>