<svg xmlns="http://www.w3.org/2000/svg" width="192" height="192" viewBox="0 0 2048 2048">
  <g transform="scale(1,-1) translate(0,-2048)">
    <path fill="#f9f9f9" d="M509 1607H781V1503H888V1606H1161V1503H1260V1607H1539V1212H509ZM526 483H1522V1212H526ZM428 483H1620V205H428Z"/>
    <path fill="#101010" d="M509 1607H781V1503H888V1606H1161V1503H1260V1607H1539V1212H509ZM573 1538V1282H1464V1538H1330V1433H1085V1538H954V1433H711V1538ZM641 1212 526 483H596L711 1212ZM1324 1212 1452 483H1522L1394 1212ZM428 483H1620V205H428ZM492 412V280H1550V412Z"/>
  </g>
</svg>