<?xml version="1.0" encoding="UTF-8"?>
<svg xmlns="http://www.w3.org/2000/svg" viewBox="-10 0 2010 2000">
  <defs>
    <clipPath id="c">
      <path d="M1902 2001q-126 -60 -393 -60q-121 0 -294 8q-49 -107 -213 -107q-168 0 -217 107q-173 -8 -294 -8q-267 0 -393 60q-17 -36 -17 -90q0 -217 315 -217q103 0 237 25q-23 -96 -23 -183q0 -43 6 -84q-41 -59 -78 -149q-57 -138 -57 -261q0 -241 312 -608q-50 -24 -50 -96
q0 -46 32.5 -78.5t78.5 -32.5q47 0 79.5 32t33.5 79q1 64 -57 96q47 59 94 94q78 -65 96 -107q-40 -40 -40 -83q0 -47 33.5 -79t80.5 -32q49 0 79.5 31.5t32.5 80.5q3 61 -48 82q253 307 250 597q-1 128 -38 264q-33 122 -66 170q6 41 6 84q0 87 -23 183q134 -25 237 -25
q315 0 315 217q0 54 -17 90z"/>
    </clipPath>
  </defs>
  <rect x="-10" y="0" width="2010" height="2000" fill="#f9f9f9" clip-path="url(#c)"/>
  <path fill="currentColor" fill-rule="evenodd" d="M1902 2001q-126 -60 -393 -60q-121 0 -294 8q-49 -107 -213 -107q-168 0 -217 107q-173 -8 -294 -8q-267 0 -393 60q-17 -36 -17 -90q0 -217 315 -217q103 0 237 25q-23 -96 -23 -183q0 -43 6 -84q-41 -59 -78 -149q-57 -138 -57 -261q0 -241 312 -608q-50 -24 -50 -96
q0 -46 32.5 -78.5t78.5 -32.5q47 0 79.5 32t33.5 79q1 64 -57 96q47 59 94 94q78 -65 96 -107q-40 -40 -40 -83q0 -47 33.5 -79t80.5 -32q49 0 79.5 31.5t32.5 80.5q3 61 -48 82q253 307 250 597q-1 128 -38 264q-33 122 -66 170q6 41 6 84q0 87 -23 183q134 -25 237 -25
q315 0 315 217q0 54 -17 90zM1359 1130q0 -213 -133 -421q-62 -97 -110 -119q-30 -14 -56 -14q-46 0 -48 38q-1 16 69 113q88 122 110 189q17 61 51 184q41 143 75 143q42 0 42 -113zM1309 1499q7 -18 -27 -27q-31 -8 -38 10q-3 20 29 29q33 9 36 -12zM1311 1334
q-46 -36 -86 -50q-85 -30 -225 -30q-209 0 -311 80q-19 15 -19 41q0 50 34 50l8 -2q73 -30 97 -36q75 -20 191 -26q155 8 288 62q5 2 8 2q34 0 34 -50q0 -26 -19 -41zM1082 1453q0 -30 -82 -30t-82 30q0 31 82 31t82 -31zM1281 1624q-63 -34 -89 -43q-79 -27 -192 -27
q-155 0 -281 70q-22 12 -22 39q0 52 36 52q5 0 9 -2q73 -33 94 -40q64 -22 164 -22t164 22q21 7 94 40q4 2 9 2q36 0 36 -52q0 -27 -22 -39zM756 1482q-7 -18 -38 -10q-34 9 -27 27q3 21 36 12q32 -9 29 -29z"/>
</svg>