<?xml version="1.0" encoding="UTF-8"?>
<svg xmlns="http://www.w3.org/2000/svg" viewBox="-10 0 2010 2000">
  <defs>
    <clipPath id="c">
      <path d="M1904 864q-12 164 -133 327q-87 117 -172 172q-5 76 -25 436q-62 103 -266 137q-108 18 -308 18t-308 -18q-204 -34 -266 -137l-25 -436q-122 -80 -212 -232q-95 -158 -95 -297q0 -136 103 -224q97 -85 235 -85q156 0 307 112v-393h522v393q151 -112 305 -112
q149 0 247 94q101 98 91 245z"/>
    </clipPath>
  </defs>
  <rect x="-10" y="0" width="2010" height="2000" fill="#f9f9f9" clip-path="url(#c)"/>
  <path fill="currentColor" fill-rule="evenodd" d="M1904 864q-12 164 -133 327q-87 117 -172 172q-5 76 -25 436q-62 103 -266 137q-108 18 -308 18t-308 -18q-204 -34 -266 -137l-25 -436q-122 -80 -212 -232q-95 -158 -95 -297q0 -136 103 -224q97 -85 235 -85q156 0 307 112v-393h522v393q151 -112 305 -112
q149 0 247 94q101 98 91 245zM1186 595q17 -20 -2 -36l-105 -93l102 -92q18 -16 1 -36l-32 -37q-18 -21 -39 -2l-111 100l-111 -100q-21 -19 -39 2l-32 37q-17 20 1 36l102 92l-105 93q-19 16 -2 36l32 38q15 18 37 4l117 -103l117 103q22 14 37 -4zM1109 837
q0 -45 -32 -74.5t-77 -29.5t-77 29.5t-32 74.5t32 74.5t77 29.5t77 -29.5t32 -74.5zM1505 1545q8 -30 -52 -46q-56 -15 -67 14q-7 32 52 48q58 16 67 -16zM1674 944q3 -151 -181 -155q-80 9 -148 52q-165 104 -251 363h-188q-128 -385 -399 -415q-184 4 -181 155
q32 209 207 325l-51 42q-5 12 -5 26q-1 34 33 49q273 -79 490 -79t490 79q34 -15 33 -49q0 -14 -5 -26l-51 -42q174 -116 207 -325zM1102 1455q0 -54 -102 -54t-102 54t102 54t102 -54zM1000 1616q-137 0 -266 14q-220 24 -220 76q0 16 16.5 31.5t31.5 11.5q187 -53 339 -53
q50 0 99 5q49 -5 99 -5q152 0 339 53q15 4 31.5 -11.5t16.5 -31.5q0 -42 -148.5 -66t-337.5 -24zM614 1513q-11 -29 -67 -14q-60 16 -52 46q9 32 67 16q59 -16 52 -48zM1538 977q2 61 -175 254q-59 -14 -146 -27q101 -284 274 -284q45 0 47 57zM783 1204q-41 6 -146 27
q-177 -193 -175 -254q2 -63 60 -56q53 7 92 32q104 68 169 251z"/>
</svg>