<?xml version="1.0" encoding="UTF-8"?>
<svg xmlns="http://www.w3.org/2000/svg" viewBox="-10 0 2010 2000">
  <defs>
    <clipPath id="c">
      <path d="M1767 1308q13 81 13 175q0 212 -57 437h-1062q-75 0 -75 -58q0 -50 52 -131q43 -67 98 -122q277 -118 277 -451q0 -19 -1 -38q-154 169 -242 169q-19 0 -34 -10q-104 191 -192 228q-60 25 -89 25q-25 0 -25 -18q0 -21 20 -37q6 -5 88 -59q38 -25 46 -62q4 -19 4 -34
q0 -46 -38 -46q-54 0 -92 47q-34 41 -41 98q-45 68 -85 68q-30 0 -89 -73q-42 -52 -42 -115q0 -66 32 -97q75 -73 129 -155q2 -3 76 -123q5 -173 146 -338q-58 -104 -58 -229q0 -39 6 -69l106 106h40l10 -180q79 119 122 155q43 26 85 52q193 39 229 51q538 182 643 834z"/>
    </clipPath>
  </defs>
  <rect x="-10" y="0" width="2010" height="2000" fill="#f9f9f9" clip-path="url(#c)"/>
  <path fill="currentColor" fill-rule="evenodd" d="M1767 1308q13 81 13 175q0 212 -57 437h-1062q-75 0 -75 -58q0 -50 52 -131q43 -67 98 -122q277 -118 277 -451q0 -19 -1 -38q-154 169 -242 169q-19 0 -34 -10q-104 191 -192 228q-60 25 -89 25q-25 0 -25 -18q0 -21 20 -37q6 -5 88 -59q38 -25 46 -62q4 -19 4 -34
q0 -46 -38 -46q-54 0 -92 47q-34 41 -41 98q-45 68 -85 68q-30 0 -89 -73q-42 -52 -42 -115q0 -66 32 -97q75 -73 129 -155q2 -3 76 -123q5 -173 146 -338q-58 -104 -58 -229q0 -39 6 -69l106 106h40l10 -180q79 119 122 155q43 26 85 52q193 39 229 51q538 182 643 834z
M830 605q-46 -10 -57 -29q-14 -39 -27 -78q-47 63 -47 124q0 29 8 64q11 48 70 48q13 0 30 -4q34 -8 34 -50q0 -28 -11 -75zM1683 1569q0 -278 -48 -445q-55 -191 -245 -389q-201 -209 -363 -212q-41 -1 -41 43q0 27 32 39q124 47 200 109q38 31 159 160q108 115 162 320
q45 170 45 361q0 -6 -8 152q-6 118 5 135h69q12 -16 23 -127q10 -100 10 -146zM746 970q1 -5 1 -12q0 -56 -40.5 -90t-97.5 -34q-30 0 -61 7q-62 14 -62 51q0 11 14 17l54 22q19 13 23 62q68 -31 109 -31q22 0 60 8zM444 1260q4 -16 -30 -28q-28 -10 -47 -10q-93 0 -93 101
q0 50 40 50q20 0 32 -17q27 -38 63 -52q26 -10 35 -44z"/>
</svg>