<?xml version="1.0" encoding="UTF-8"?>
<svg xmlns="http://www.w3.org/2000/svg" viewBox="-10 0 2010 2000">
  <defs>
    <clipPath id="c">
      <path d="M1600 1895h-1200q-5 -157 122 -228q99 -55 268 -54l6 -85q-62 -34 -62 -135q0 -127 108 -326v-131h-361q-8 -59 31 -134q62 -120 220 -163q69 -42 98 -52q12 -4 25 -19q-21 -32 -26 -43q-13 -27 -14 -47q-2 -74 54 -125.5t131 -51.5q74 0 130.5 51.5t54.5 125.5
q-2 67 -40 90q10 41 123 71q254 68 254 266q0 20 -3 31h-361v131q109 199 109 326q0 101 -63 135l6 85q230 -2 329 101q63 66 63 157q0 15 -2 24z"/>
    </clipPath>
  </defs>
  <rect x="-10" y="0" width="2010" height="2000" fill="#f9f9f9" clip-path="url(#c)"/>
  <path fill="currentColor" fill-rule="evenodd" d="M1600 1895h-1200q-5 -157 122 -228q99 -55 268 -54l6 -85q-62 -34 -62 -135q0 -127 108 -326v-131h-361q-8 -59 31 -134q62 -120 220 -163q69 -42 98 -52q12 -4 25 -19q-21 -32 -26 -43q-13 -27 -14 -47q-2 -74 54 -125.5t131 -51.5q74 0 130.5 51.5t54.5 125.5
q-2 67 -40 90q10 41 123 71q254 68 254 266q0 20 -3 31h-361v131q109 199 109 326q0 101 -63 135l6 85q230 -2 329 101q63 66 63 157q0 15 -2 24z"/>
</svg>