<?xml version="1.0" encoding="UTF-8"?>
<svg xmlns="http://www.w3.org/2000/svg" viewBox="-10 0 2010 2000">
  <defs>
    <clipPath id="c">
      <path d="M1905 787q0 45 -31.5 77.5t-76.5 32.5l-200 439l-46 475q-185 136 -551 136q-397 0 -541 -136l-56 -475l-190 -439q-45 0 -76.5 -32.5t-31.5 -77.5t31.5 -77t76.5 -32q46 0 77.5 31.5t31.5 77.5q0 30 -15 54l242 194l138 -524q-88 -29 -88 -119q0 -53 38 -89t91 -36
q55 0 92.5 35t37.5 90q0 47 -34 84l176 357l186 -357q-34 -37 -34 -84q0 -55 37.5 -90t92.5 -35q56 0 93.5 35t37.5 90q0 89 -90 119l128 524l252 -194q-15 -24 -15 -54q0 -46 31.5 -77.5t77.5 -31.5q45 0 76.5 32t31.5 77z"/>
    </clipPath>
  </defs>
  <rect x="-10" y="0" width="2010" height="2000" fill="#f9f9f9" clip-path="url(#c)"/>
  <path fill="currentColor" fill-rule="evenodd" d="M1905 787q0 45 -31.5 77.5t-76.5 32.5l-200 439l-46 475q-185 136 -551 136q-397 0 -541 -136l-56 -475l-190 -439q-45 0 -76.5 -32.5t-31.5 -77.5t31.5 -77t76.5 -32q46 0 77.5 31.5t31.5 77.5q0 30 -15 54l242 194l138 -524q-88 -29 -88 -119q0 -53 38 -89t91 -36
q55 0 92.5 35t37.5 90q0 47 -34 84l176 357l186 -357q-34 -37 -34 -84q0 -55 37.5 -90t92.5 -35q56 0 93.5 35t37.5 90q0 89 -90 119l128 524l252 -194q-15 -24 -15 -54q0 -46 31.5 -77.5t77.5 -31.5q45 0 76.5 32t31.5 77zM1506 1555q0 -26 -53 -40q-68 -17 -68 23
q0 25 53 40q68 20 68 -23zM1513 1325q-14 -29 -131 -64q-151 -45 -382 -45t-382 45q-117 35 -131 64q-8 16 -8 32q0 41 33 47q-9 -2 133 -39q154 -40 355 -40t355 40q142 37 133 39q33 -6 33 -47q0 -16 -8 -32zM1104 1467q0 -54 -104 -54t-104 54q0 56 104 56t104 -56z
M1000 1609q-140 0 -249 15q-203 28 -203 97q0 42 30 47q-9 -2 100 -29q122 -30 322 -30t322 30q109 27 100 29q30 -5 30 -47q0 -69 -203 -97q-109 -15 -249 -15zM553 1515q-53 14 -53 40q0 43 68 23q53 -15 53 -40q0 -40 -68 -23z"/>
</svg>