<?xml version="1.0" encoding="UTF-8"?>
<svg xmlns="http://www.w3.org/2000/svg" viewBox="-10 0 2010 2000">
  <defs>
    <clipPath id="c">
      <path d="M1680 1932h-1360v-226l106 -100v-52l129 -132v-659l-156 -155v-333h234v154h210v-155h314v155h210v-154h234v333l-156 155v659l129 132v52l106 100v226z"/>
    </clipPath>
  </defs>
  <rect x="-10" y="0" width="2010" height="2000" fill="#f9f9f9" clip-path="url(#c)"/>
  <path fill="currentColor" fill-rule="evenodd" d="M1680 1932h-1360v-226l106 -100v-52l129 -132v-659l-156 -155v-333h234v154h210v-155h314v155h210v-154h234v333l-156 155v659l129 132v52l106 100v226zM1363 820v-133h-730v133h730zM1363 1494v-133h-730v133h730z"/>
</svg>