<?xml version="1.0" encoding="UTF-8"?>
<svg xmlns="http://www.w3.org/2000/svg" viewBox="-10 0 2010 2000">
  <defs>
    <clipPath id="c">
      <path d="M1902 2001q-125 -59 -393 -59q-121 0 -294 7q-48 -107 -213 -107q-169 0 -217 107q-173 -7 -294 -7q-268 0 -393 59q-18 -36 -18 -90q0 -218 317 -218q102 0 236 26q-23 -97 -23 -183q0 -43 6 -84q-42 -59 -79 -148q-57 -138 -57 -261q0 -8 2 -35q17 -227 311 -574
q-50 -23 -50 -96q0 -46 32.5 -78.5t78.5 -32.5q47 0 79.5 32t33.5 79q1 64 -57 96q46 60 94 94q78 -65 96 -107q-40 -40 -40 -83q0 -47 33.5 -79t80.5 -32q48 0 79 32t33 80q3 60 -48 82q254 307 250 597q-2 122 -38 263q-32 124 -66 171q6 41 6 84q0 86 -23 183
q134 -26 237 -26q316 0 316 218q0 54 -18 90z"/>
    </clipPath>
  </defs>
  <rect x="-10" y="0" width="2010" height="2000" fill="#f9f9f9" clip-path="url(#c)"/>
  <path fill="currentColor" fill-rule="evenodd" d="M1902 2001q-125 -59 -393 -59q-121 0 -294 7q-48 -107 -213 -107q-169 0 -217 107q-173 -7 -294 -7q-268 0 -393 59q-18 -36 -18 -90q0 -218 317 -218q102 0 236 26q-23 -97 -23 -183q0 -43 6 -84q-42 -59 -79 -148q-57 -138 -57 -261q0 -8 2 -35q17 -227 311 -574
q-50 -23 -50 -96q0 -46 32.5 -78.5t78.5 -32.5q47 0 79.5 32t33.5 79q1 64 -57 96q46 60 94 94q78 -65 96 -107q-40 -40 -40 -83q0 -47 33.5 -79t80.5 -32q48 0 79 32t33 80q3 60 -48 82q254 307 250 597q-2 122 -38 263q-32 124 -66 171q6 41 6 84q0 86 -23 183
q134 -26 237 -26q316 0 316 218q0 54 -18 90zM1216 333q0 -45 -42 -45q-44 0 -44 45q0 44 44 44q42 0 42 -44zM896 333q0 -45 -42 -45q-44 0 -44 45q0 44 44 44q42 0 42 -44zM1413 1031q2 -148 -70 -303q-51 -110 -169 -274q-54 61 -132 140q37 40 84 94q226 259 245 564
q40 -72 42 -221zM1309 1206q-8 -112 -101 -279q-124 -223 -354 -447q-102 71 -203 269t-101 324q0 150 118 279q96 -37 182 -47q43 -5 150 -5q177 0 280 56q36 -54 29 -150zM1856 1897q1 -8 1 -16q0 -119 -250 -119q-180 0 -453 60q34 52 354 63zM1309 1642l-4 -79l-53 -46
l57 -34v-50q-73 -58 -309 -58t-309 58v50l57 34l-53 46l-4 79q106 -31 309 -31t309 31zM1265 1723q0 -52 -265 -52t-265 52q0 51 265 51t265 -51zM846 1822q-273 -60 -453 -60q-250 0 -250 119q0 8 1 16l348 -12q320 -11 354 -63zM1069 1498q0 36 -69 36t-69 -36
q0 -35 69 -35t69 35z"/>
</svg>