<?xml version="1.0" encoding="UTF-8"?>
<svg xmlns="http://www.w3.org/2000/svg" viewBox="-10 0 2010 2000">
  <defs>
    <clipPath id="c">
      <path d="M1904 860q-12 164 -133 327q-87 117 -172 172q-5 76 -25 436q-62 103 -266 137q-108 18 -308 18
t-308 -18q-204 -34 -266 -137l-25 -436q-122 -80 -212 -232q-95 -158 -95 -297q0 -136 103 -224q97 -85 235 -85q156 0 307 112v-393h522v393q151 -112 305 -112q149 0 247 94q101 98 91 245z"/>
    </clipPath>
  </defs>
  <rect x="-10" y="0" width="2010" height="2000" fill="#f9f9f9" clip-path="url(#c)"/>
  <path fill="currentColor" fill-rule="evenodd" d="M1190 654v-297l-146 148zM1154 318h-308l154 146zM1828 864q7 -84 -45 -160q-71 -104 -219 -103q-251 2 -419 288q-70 119 -118 286q107 2 205 15q226 30 331 102q247 -198 265 -428zM1150 689l-150 -146l-150 146h300zM956 505l-146 -148v297zM1159 760h-318
q87 100 159 269q74 -172 159 -269zM973 1175q-48 -167 -118 -286q-168 -286 -419 -288q-149 -1 -220 103q-52 77 -44 160q22 230 265 428q157 -109 536 -117zM1520 1357q-222 -107 -520 -107t-520 107l9 129h114l-96 111v98q105 -108 493 -108t493 108v-98l-96 -111h114z
M1474 1770q0 -62 -213 -92q-135 -19 -261 -19t-261 19q-213 30 -213 92t213 93q138 20 261 20t261 -20q213 -31 213 -93zM1117 1426q0 50 -117 50t-117 -50t117 -50t117 50zM1904 860q-12 164 -133 327q-87 117 -172 172q-5 76 -25 436q-62 103 -266 137q-108 18 -308 18
t-308 -18q-204 -34 -266 -137l-25 -436q-122 -80 -212 -232q-95 -158 -95 -297q0 -136 103 -224q97 -85 235 -85q156 0 307 112v-393h522v393q151 -112 305 -112q149 0 247 94q101 98 91 245z"/>
</svg>