<?xml version="1.0" encoding="UTF-8"?>
<svg xmlns="http://www.w3.org/2000/svg" viewBox="-10 0 2010 2000">
  <defs>
    <clipPath id="c">
      <path d="M1845 1534q-6 333 -56 396l-1161 2q-64 -73 -64 -152q0 -107 90 -178q313 -248 306 -325q-87 16 -160 16q-53 0 -98 -8q-102 205 -236 207q-12 3 -23 3q-36 0 -55 -30q-23 31 -56 31q-7 0 -17 -2q-85 -17 -121 -54q-40 -42 -40 -125q0 -16 1 -30q7 -101 124 -222
q123 -127 135 -195q11 -60 19 -76q24 -46 112 -127q-5 -8 -18 -113q-15 -121 -15 -196q0 -23 2 -41q87 66 125 100q7 -141 73 -221q39 78 150 183q372 -8 623 250q192 197 291 518q72 232 69 389z"/>
    </clipPath>
  </defs>
  <rect x="-10" y="0" width="2010" height="2000" fill="#f9f9f9" clip-path="url(#c)"/>
  <path fill="currentColor" fill-rule="evenodd" d="M1845 1534q-6 333 -56 396l-1161 2q-64 -73 -64 -152q0 -107 90 -178q313 -248 306 -325q-87 16 -160 16q-53 0 -98 -8q-102 205 -236 207q-12 3 -23 3q-36 0 -55 -30q-23 31 -56 31q-7 0 -17 -2q-85 -17 -121 -54q-40 -42 -40 -125q0 -16 1 -30q7 -101 124 -222
q123 -127 135 -195q11 -60 19 -76q24 -46 112 -127q-5 -8 -18 -113q-15 -121 -15 -196q0 -23 2 -41q87 66 125 100q7 -141 73 -221q39 78 150 183q372 -8 623 250q192 197 291 518q72 232 69 389zM652 499q-14 -50 -51 -40q-41 11 -27 62q13 49 54 38q38 -10 24 -60z
M1766 1446l-94 -98l73 -125l-140 -94l52 -130l-133 -85l29 -117l-121 -19l-21 -113l-117 -16l-27 -88l-75 15l-19 -63l-110 11l-36 -71l-138 29q-68 -38 -91 -57q-10 -8 -73 -71q-22 46 -22 84q0 42 46 95q32 37 32 74q0 16 -6 31l-107 -73q-21 21 -79 132q-77 72 -108 135
q-22 45 -44 138q-24 58 -184 213q-42 41 -42 127q0 103 113 107q84 -101 130 -101q5 0 8 1q-18 32 -18 62q0 18 7 32q11 5 26 5q83 0 168 -139q-43 -41 -43 -86q0 -7 1 -14q70 36 218 36q207 0 242 -82q-14 158 -88 269q-82 123 -307 296q-40 31 -40 90q0 39 26 69
q262 -30 544 -30q284 0 510 34l52 -188l-80 -85zM848 868q-71 36 -146 73q-82 8 -84 -27q-3 -46 19.5 -71.5t68.5 -22.5q56 3 142 48zM399 1246q9 23 -40 41q-45 17 -56 -6q-7 -23 40 -40q47 -18 56 5z"/>
</svg>