<?xml version="1.0" encoding="UTF-8"?>
<svg xmlns="http://www.w3.org/2000/svg" viewBox="-10 0 2010 2000">
  <defs>
    <clipPath id="c">
      <path d="M1600 1895h-1200q-5 -157 122 -228q99 -55 268 -54l6 -85q-62 -34 -62 -135q0 -127 108 -326v-131h-361q-8 -59 31 -134q62 -120 220 -163q69 -42 98 -52q12 -4 25 -19q-21 -32 -26 -43q-13 -27 -14 -47q-2 -74 54 -125.5t131 -51.5q74 0 130.5 51.5t54.5 125.5
q-2 67 -40 90q10 41 123 71q254 68 254 266q0 20 -3 31h-361v131q109 199 109 326q0 101 -63 135l6 85q230 -2 329 101q63 66 63 157q0 15 -2 24z"/>
    </clipPath>
  </defs>
  <rect x="-10" y="0" width="2010" height="2000" fill="#f9f9f9" clip-path="url(#c)"/>
  <path fill="currentColor" fill-rule="evenodd" d="M1600 1895h-1200q-5 -157 122 -228q99 -55 268 -54l6 -85q-62 -34 -62 -135q0 -127 108 -326v-131h-361q-8 -59 31 -134q62 -120 220 -163q69 -42 98 -52q12 -4 25 -19q-21 -32 -26 -43q-13 -27 -14 -47q-2 -74 54 -125.5t131 -51.5q74 0 130.5 51.5t54.5 125.5
q-2 67 -40 90q10 41 123 71q254 68 254 266q0 20 -3 31h-361v131q109 199 109 326q0 101 -63 135l6 85q230 -2 329 101q63 66 63 157q0 15 -2 24zM1423 868q12 -108 -189 -167q-124 -37 -185 -129q52 -29 52 -94q0 -43 -29 -71.5t-72 -28.5t-72.5 28.5t-28.5 71.5
q1 75 52 94q-57 95 -185 129q-70 19 -122 57q-68 50 -67 110h846zM1494 1818q-14 -50 -47 -75q-83 -63 -294 -65l-26 -163q26 -7 36 -21q16 -24 26 -95q-2 -48 -13 -88q-27 -99 -100 -232v-143h-152v143q-124 219 -113 320q7 63 30 94q5 7 32 22l-26 163q-213 2 -299 65
q-50 37 -46 75h992z"/>
</svg>