<?xml version="1.0" encoding="UTF-8"?>
<svg xmlns="http://www.w3.org/2000/svg" viewBox="-10 0 2010 2000">
  <defs>
    <clipPath id="c">
      <path d="M1905 787q0 45 -31.5 77.5t-76.5 32.5l-200 439l-46 475q-186 136 -551 136q-397 0 -541 -136l-56 -475l-190 -439q-45 0 -76.5 -32.5t-31.5 -77.5t31.5 -77t76.5 -32q46 0 77.5 31.5t31.5 77.5q0 30 -15 54l242 194l138 -524q-88 -30 -88 -119q0 -53 38 -89t91 -36
q55 0 92.5 35t37.5 90q0 47 -34 84l176 357l186 -357q-34 -37 -34 -84q0 -55 37.5 -90t92.5 -35q56 0 93.5 35t37.5 90q0 89 -90 119l128 524l252 -194q-15 -24 -15 -54q0 -46 31.5 -77.5t77.5 -31.5q45 0 76.5 32t31.5 77z"/>
    </clipPath>
  </defs>
  <rect x="-10" y="0" width="2010" height="2000" fill="#f9f9f9" clip-path="url(#c)"/>
  <path fill="currentColor" fill-rule="evenodd" d="M1905 787q0 45 -31.5 77.5t-76.5 32.5l-200 439l-46 475q-186 136 -551 136q-397 0 -541 -136l-56 -475l-190 -439q-45 0 -76.5 -32.5t-31.5 -77.5t31.5 -77t76.5 -32q46 0 77.5 31.5t31.5 77.5q0 30 -15 54l242 194l138 -524q-88 -30 -88 -119q0 -53 38 -89t91 -36
q55 0 92.5 35t37.5 90q0 47 -34 84l176 357l186 -357q-34 -37 -34 -84q0 -55 37.5 -90t92.5 -35q56 0 93.5 35t37.5 90q0 89 -90 119l128 524l252 -194q-15 -24 -15 -54q0 -46 31.5 -77.5t77.5 -31.5q45 0 76.5 32t31.5 77zM1847 793q0 -52 -52 -52t-52 52t52 52t52 -52z
M1350 392q0 -65 -68 -65q-65 0 -65 65q0 67 65 67q68 0 68 -67zM797 392q0 -65 -66 -65q-27 0 -47 19t-20 46q0 67 67 67q66 0 66 -67zM1728 901l-308 242l-157 -609l-43 -11l-220 447l-214 -445l-37 9l-168 609l-314 -262l188 407q268 -107 545 -107q297 0 545 107z
M1517 1356q-218 -109 -517 -109q-296 0 -516 109l9 130h114l-98 110v98q163 -103 491 -98q356 5 492 99v-99l-98 -110h113zM263 787q0 -52 -52 -52t-52 52t52 52t52 -52zM1469 1770q0 -62 -211 -93q-136 -20 -258 -20q-123 0 -260 20q-212 31 -212 93t212 92q141 20 260 20
q118 0 258 -20q211 -30 211 -92zM1113 1430q0 45 -113 45q-112 0 -112 -45t112 -45q113 0 113 45z"/>
</svg>